# Blender 5.0.1
# www.blender.org
mtllib armoire_chambre.mtl
o Armoire
v -1.144000 -0.000000 -0.200000
v -1.144000 2.288000 -0.200000
v 1.144000 -0.000000 -0.200000
v 1.144000 2.287999 -0.200000
v -1.144000 0.000000 0.200000
v -1.144000 2.288000 0.200000
v 1.144000 -0.000000 0.200000
v 1.144000 2.287999 0.200000
v -1.144000 2.173599 -0.200000
v 1.144000 2.173599 -0.200000
v 1.144000 2.173599 0.200000
v -1.144000 2.173599 0.200000
v 1.144000 2.287999 0.230000
v -1.144000 2.288000 0.230000
v 1.144000 2.173599 0.215000
v -1.144000 2.173599 0.215000
v 0.000000 -0.000000 -0.200000
v 0.000000 2.287999 -0.200000
v 0.000000 -0.000000 0.200000
v 0.000000 2.287999 0.200000
v 0.000000 2.173599 0.200000
v 0.000000 2.173599 -0.200000
v 0.000000 2.287999 0.230000
v 0.000000 2.173599 0.215000
v -1.058200 -0.000000 -0.200000
v -1.058200 2.288000 0.200000
v -1.058200 2.173599 0.200000
v -1.058200 2.288000 0.230000
v -1.058200 2.173599 0.215000
v -1.058200 2.288000 -0.200000
v -1.058200 0.000000 0.200000
v -1.058200 2.173599 -0.200000
v 1.058200 2.287999 -0.200000
v 1.058200 -0.000000 0.200000
v 1.058200 2.173599 -0.200000
v 1.058200 -0.000000 -0.200000
v 1.058200 2.287999 0.200000
v 1.058200 2.173599 0.200000
v 1.058200 2.287999 0.230000
v 1.058200 2.173599 0.215000
v 1.144000 0.228800 -0.200000
v 1.144000 0.228800 0.200000
v -1.144000 0.228800 0.200000
v -1.144000 0.228800 -0.200000
v 0.000000 0.228800 -0.200000
v 0.000000 0.228800 0.200000
v -1.058200 0.228800 -0.200000
v -1.058200 0.228800 0.200000
v 1.058200 0.228800 0.200000
v 1.058200 0.228800 -0.200000
v -1.144000 2.116400 -0.200000
v 1.144000 2.116400 -0.200000
v 1.144000 2.116400 0.200000
v -1.144000 2.116400 0.200000
v 0.000000 2.116400 -0.200000
v 0.000000 2.116400 0.200000
v -1.058200 2.116400 -0.200000
v -1.058200 2.116400 0.200000
v 1.058200 2.116400 0.200000
v 1.058200 2.116400 -0.200000
v 0.010582 2.173599 0.200000
v -0.010582 2.173599 0.200000
v 0.010582 2.173599 0.215000
v -0.010582 2.173599 0.215000
v 0.010582 2.287999 0.200000
v -0.010582 2.287999 0.200000
v 0.010582 2.287999 0.230000
v -0.010582 2.287999 0.230000
v 0.010582 0.228800 -0.200000
v -0.010582 0.228800 -0.200000
v 0.010582 -0.000000 -0.200000
v -0.010582 -0.000000 -0.200000
v -0.010582 0.228800 0.200000
v 0.010582 0.228800 0.200000
v -0.010582 -0.000000 0.200000
v 0.010582 -0.000000 0.200000
v -0.010582 2.287999 -0.200000
v 0.010582 2.287999 -0.200000
v -0.010582 2.173599 -0.200000
v 0.010582 2.173599 -0.200000
v 0.010582 2.116400 -0.200000
v -0.010582 2.116400 -0.200000
v -0.010582 2.116400 0.200000
v 0.010582 2.116400 0.200000
v -1.058200 2.116400 0.220000
v -1.058200 0.228800 0.220000
v 1.058200 2.116400 0.220000
v 1.058200 0.228800 0.220000
v -0.010582 0.228800 0.220000
v 0.010582 0.228800 0.220000
v -0.010582 2.116400 0.220000
v 0.010582 2.116400 0.220000
v 0.039182 2.173599 0.200000
v 0.039182 2.173599 0.215000
v 0.039182 2.287999 0.200000
v 0.039182 2.287999 0.230000
v 0.039182 0.228800 -0.200000
v 0.039182 -0.000000 -0.200000
v 0.039182 0.228800 0.200000
v 0.039182 -0.000000 0.200000
v 0.039182 2.287999 -0.200000
v 0.039182 2.173599 -0.200000
v 0.039182 2.116400 -0.200000
v 0.039182 2.116400 0.200000
v 0.039182 0.228800 0.220000
v 0.039182 2.116400 0.220000
v -0.039182 2.173599 0.200000
v -0.039182 2.173599 0.215000
v -0.039182 2.287999 0.200000
v -0.039182 2.287999 0.230000
v -0.039182 0.228800 -0.200000
v -0.039182 -0.000000 -0.200000
v -0.039182 0.228800 0.200000
v -0.039182 -0.000000 0.200000
v -0.039182 2.287999 -0.200000
v -0.039182 2.173599 -0.200000
v -0.039182 2.116400 -0.200000
v -0.039182 2.116400 0.200000
v -0.039182 0.228800 0.220000
v -0.039182 2.116400 0.220000
v 1.144000 1.172600 -0.200000
v 1.144000 1.172600 0.200000
v -1.144000 1.172600 0.200000
v 0.000000 1.172600 -0.200000
v 0.000000 1.172600 0.200000
v -1.058200 1.172600 -0.200000
v -1.058200 1.172600 0.200000
v 1.058200 1.172600 0.200000
v 1.058200 1.172600 -0.200000
v -1.144000 1.172600 -0.200000
v -0.010582 1.172600 -0.200000
v 0.010582 1.172600 0.200000
v 0.010582 1.172600 -0.200000
v -0.010582 1.172600 0.200000
v -1.058200 1.172600 0.220000
v 1.058200 1.172600 0.220000
v 0.010582 1.172600 0.220000
v -0.010582 1.172600 0.220000
v 0.039182 1.172600 0.220000
v 0.039182 1.172600 -0.200000
v -0.039182 1.172600 0.220000
v -0.039182 1.172600 -0.200000
v -1.144000 1.458600 -0.200000
v 0.010582 1.458600 -0.200000
v -0.010582 1.458600 0.200000
v -0.010582 1.458600 0.220000
v 1.144000 1.458600 -0.200000
v 1.144000 1.458599 0.200000
v -1.144000 1.458600 0.200000
v 0.000000 1.458600 -0.200000
v 0.000000 1.458600 0.200000
v -1.058200 1.458600 -0.200000
v -1.058200 1.458600 0.200000
v 1.058200 1.458599 0.200000
v 1.058200 1.458600 -0.200000
v -0.010582 1.458600 -0.200000
v 0.010582 1.458600 0.200000
v -1.058200 1.458600 0.220000
v 1.058200 1.458599 0.220000
v 0.010582 1.458600 0.220000
v 0.039182 1.458600 0.220000
v 0.039182 1.458600 -0.200000
v -0.039182 1.458600 0.220000
v -0.039182 1.458600 -0.200000
v 0.010582 1.458600 0.260000
v 0.010582 1.172600 0.260000
v 0.039182 1.458600 0.260000
v 0.039182 1.172600 0.260000
v -0.039182 1.458600 0.260000
v -0.039182 1.172600 0.260000
v -0.010582 1.172600 0.260000
v -0.010582 1.458600 0.260000
v -0.039182 1.430000 0.224999
v -0.039182 1.201200 0.224999
v -0.039182 1.201200 0.255000
v -0.039182 1.430000 0.255000
v 0.039182 1.201200 0.224999
v 0.039182 1.430000 0.224999
v 0.039182 1.430000 0.255000
v 0.039182 1.201200 0.255000
v 0.010582 1.430000 0.224999
v 0.010582 1.201200 0.224999
v 0.010582 1.201200 0.255000
v 0.010582 1.430000 0.255000
v -0.010582 1.201200 0.224999
v -0.010582 1.430000 0.224999
v -0.010582 1.430000 0.255000
v -0.010582 1.201200 0.255000
v 1.144000 2.173599 -0.000000
v 1.144000 2.287999 -0.000000
v -1.144000 2.173599 -0.000000
v -1.144000 2.288000 -0.000000
v -1.058200 0.000000 -0.000000
v -1.144000 0.000000 -0.000000
v -1.058200 2.288000 -0.000000
v -1.144000 2.116400 -0.000000
v 1.144000 2.116400 -0.000000
v 0.010582 2.287999 -0.000000
v 0.000000 2.287999 -0.000000
v 0.010582 -0.000000 -0.000000
v 0.000000 -0.000000 -0.000000
v -0.010582 2.287999 -0.000000
v -0.010582 -0.000000 -0.000000
v 1.144000 -0.000000 -0.000000
v 1.058200 -0.000000 -0.000000
v 1.058200 2.287999 -0.000000
v 1.144000 0.228800 -0.000000
v -1.144000 0.228800 -0.000000
v 1.144000 1.458599 -0.000000
v -1.144000 1.458600 -0.000000
v 0.039182 2.287999 -0.000000
v 0.039182 -0.000000 -0.000000
v -0.039182 -0.000000 -0.000000
v -0.039182 2.287999 -0.000000
v -1.144000 1.172600 -0.000000
v 1.144000 1.172600 -0.000000
vn -0.0000 -0.0000 -1.0000
vn 1.0000 -0.0000 -0.0000
vn -1.0000 -0.0000 -0.0000
vn -0.0000 -1.0000 -0.0000
vn -0.0000 1.0000 -0.0000
vn -0.0000 -0.0000 1.0000
vn -0.0000 -0.1300 0.9915
vt 0.625000 0.250000
vt 0.625000 0.375000
vt 0.625000 0.500000
vt 0.625000 0.750000
vt 0.625000 0.875000
vt 0.625000 1.000000
vt 0.250000 0.750000
vt 0.375000 0.750000
vt 0.750000 0.750000
vt 0.875000 0.750000
vt 0.625000 0.626250
vt 0.625000 0.625000
vt 0.625000 0.623750
vt 0.625000 0.123750
vt 0.625000 0.125000
vt 0.750000 0.623750
vt 0.875000 0.623750
vt 0.875000 0.625000
vt 0.750000 0.625000
vt 0.250000 0.623750
vt 0.375000 0.623750
vt 0.375000 0.625000
vt 0.250000 0.625000
vt 0.625000 0.000000
vt 0.875000 0.626250
vt 0.750000 0.626250
vt 0.375000 0.626250
vt 0.250000 0.626250
vt 0.250000 0.500000
vt 0.375000 0.500000
vt 0.750000 0.500000
vt 0.875000 0.500000
vt 0.625000 0.126250
vt 0.375000 0.125000
vt 0.375000 0.126250
vt 0.375000 0.000000
vt 0.375000 0.123750
vt 0.375000 0.250000
vt 0.375000 0.375000
vt 0.375000 0.875000
vt 0.375000 1.000000
vt 0.500000 0.125000
vt 0.500000 0.126250
vt 0.500000 0.500000
vt 0.500000 0.625000
vt 0.500000 0.626250
vt 0.500000 0.000000
vt 0.500000 0.623750
vt 0.500000 0.123750
vt 0.500000 0.250000
vt 0.500000 0.375000
vt 0.500000 0.750000
vt 0.500000 0.875000
vt 0.500000 1.000000
vt 0.500000 0.875000
vt 0.500000 0.375000
vt 0.125000 0.626250
vt 0.125000 0.500000
vt 0.125000 0.623750
vt 0.125000 0.750000
vt 0.125000 0.625000
s 1
f 35/1/1 33/1/1 4/1/1 10/1/1
f 189/2/2 190/2/2 8/3/2 11/3/2
f 6/4/3 12/4/3 16/4/3 14/4/3
f 191/5/3 192/5/3 2/6/3 9/6/3
f 193/7/4 31/8/4 5/8/4 194/7/4
f 195/9/5 30/10/5 2/10/5 192/9/5
f 196/5/3 191/5/3 9/6/3 51/6/3
f 58/4/6 27/4/6 12/4/6 54/4/6
f 197/2/2 189/2/2 11/3/2 53/3/2
f 60/1/1 35/1/1 10/1/1 52/1/1
f 29/4/7 28/4/7 14/4/7 16/4/7
f 11/3/2 8/3/2 13/3/2 15/3/2
f 26/4/5 6/4/5 14/4/5 28/4/5
f 38/3/4 11/3/4 15/3/4 40/3/4
f 62/11/4 21/12/4 24/12/4 64/11/4
f 65/13/5 20/12/5 23/12/5 67/13/5
f 63/13/7 67/13/7 23/12/7 24/12/7
f 82/14/1 79/14/1 22/15/1 55/15/1
f 84/13/6 61/13/6 21/12/6 56/12/6
f 198/16/5 78/17/5 18/18/5 199/19/5
f 200/20/4 76/21/4 19/22/4 201/23/4
f 79/14/1 77/14/1 18/15/1 22/15/1
f 9/24/1 2/24/1 30/24/1 32/24/1
f 51/24/1 9/24/1 32/24/1 57/24/1
f 12/4/4 27/4/4 29/4/4 16/4/4
f 20/12/5 66/11/5 68/11/5 23/12/5
f 24/12/7 23/12/7 68/11/7 64/11/7
f 56/12/6 21/12/6 62/11/6 83/11/6
f 199/19/5 18/18/5 77/25/5 202/26/5
f 201/23/4 19/22/4 75/27/4 203/28/4
f 204/29/4 7/30/4 34/30/4 205/29/4
f 190/31/5 4/32/5 33/32/5 206/31/5
f 53/3/6 11/3/6 38/3/6 59/3/6
f 15/3/7 13/3/7 39/3/7 40/3/7
f 8/3/5 37/3/5 39/3/5 13/3/5
f 21/12/4 61/13/4 63/13/4 24/12/4
f 55/15/1 22/15/1 80/33/1 81/33/1
f 22/15/1 18/15/1 78/33/1 80/33/1
f 17/34/1 45/34/1 69/35/1 71/35/1
f 7/30/6 42/30/6 49/30/6 34/30/6
f 19/22/6 46/22/6 73/27/6 75/27/6
f 1/36/1 44/36/1 47/36/1 25/36/1
f 76/21/6 74/21/6 46/22/6 19/22/6
f 72/37/1 70/37/1 45/34/1 17/34/1
f 36/38/1 50/38/1 41/38/1 3/38/1
f 204/39/2 207/39/2 42/30/2 7/30/2
f 31/8/6 48/8/6 43/8/6 5/8/6
f 194/40/3 208/40/3 44/41/3 1/41/3
f 150/42/1 55/15/1 81/33/1 144/43/1
f 148/44/6 53/3/6 59/3/6 154/44/6
f 151/45/6 56/12/6 83/11/6 145/46/6
f 143/47/1 51/24/1 57/24/1 152/47/1
f 157/48/6 84/13/6 56/12/6 151/45/6
f 156/49/1 82/14/1 55/15/1 150/42/1
f 155/50/1 60/1/1 52/1/1 147/50/1
f 209/51/2 197/2/2 53/3/2 148/44/2
f 153/52/6 58/4/6 54/4/6 149/52/6
f 210/53/3 196/5/3 51/6/3 143/54/3
f 93/13/4 38/3/4 40/3/4 94/13/4
f 118/11/6 107/11/6 27/4/6 58/4/6
f 94/13/7 96/13/7 67/13/7 63/13/7
f 107/11/4 62/11/4 64/11/4 108/11/4
f 109/11/5 26/4/5 28/4/5 110/11/5
f 211/16/5 101/17/5 78/17/5 198/16/5
f 95/13/5 65/13/5 67/13/5 96/13/5
f 108/11/7 110/11/7 28/4/7 29/4/7
f 98/35/1 97/35/1 50/38/1 36/38/1
f 164/49/1 117/14/1 82/14/1 156/49/1
f 212/20/4 100/21/4 76/21/4 200/20/4
f 112/37/1 111/37/1 70/37/1 72/37/1
f 114/27/6 113/27/6 48/8/6 31/8/6
f 154/44/2 59/3/2 87/3/2 159/44/2
f 213/28/4 114/27/4 31/8/4 193/7/4
f 100/21/6 99/21/6 74/21/6 76/21/6
f 102/33/1 101/33/1 33/1/1 35/1/1
f 214/26/5 115/25/5 30/10/5 195/9/5
f 116/14/1 115/14/1 77/14/1 79/14/1
f 103/33/1 102/33/1 35/1/1 60/1/1
f 162/43/1 103/33/1 60/1/1 155/50/1
f 117/14/1 116/14/1 79/14/1 82/14/1
f 104/13/5 84/13/5 92/13/5 106/13/5
f 104/13/6 93/13/6 61/13/6 84/13/6
f 161/48/6 106/13/6 92/13/6 160/48/6
f 163/46/6 120/11/6 85/4/6 158/52/6
f 113/27/4 73/27/4 89/27/4 119/27/4
f 132/48/3 74/21/3 90/21/3 137/48/3
f 145/46/2 83/11/2 91/11/2 146/46/2
f 99/21/4 49/30/4 88/30/4 105/21/4
f 118/11/5 58/4/5 85/4/5 120/11/5
f 127/52/3 48/8/3 86/8/3 135/52/3
f 74/21/4 99/21/4 105/21/4 90/21/4
f 159/44/6 87/3/6 106/13/6 161/48/6
f 59/3/6 38/3/6 93/13/6 104/13/6
f 59/3/5 104/13/5 106/13/5 87/3/5
f 144/43/1 81/33/1 103/33/1 162/43/1
f 81/33/1 80/33/1 102/33/1 103/33/1
f 80/33/1 78/33/1 101/33/1 102/33/1
f 34/30/6 49/30/6 99/21/6 100/21/6
f 205/29/4 34/30/4 100/21/4 212/20/4
f 71/35/1 69/35/1 97/35/1 98/35/1
f 37/3/5 95/13/5 96/13/5 39/3/5
f 206/31/5 33/32/5 101/17/5 211/16/5
f 40/3/7 39/3/7 96/13/7 94/13/7
f 61/13/4 93/13/4 94/13/4 63/13/4
f 83/11/5 118/11/5 120/11/5 91/11/5
f 48/8/4 113/27/4 119/27/4 86/8/4
f 146/46/6 91/11/6 120/11/6 163/46/6
f 57/24/1 32/24/1 116/14/1 117/14/1
f 32/24/1 30/24/1 115/14/1 116/14/1
f 202/26/5 77/25/5 115/25/5 214/26/5
f 203/28/4 75/27/4 114/27/4 213/28/4
f 75/27/6 73/27/6 113/27/6 114/27/6
f 25/36/1 47/36/1 111/37/1 112/37/1
f 152/47/1 57/24/1 117/14/1 164/49/1
f 64/11/7 68/11/7 110/11/7 108/11/7
f 66/11/5 109/11/5 110/11/5 68/11/5
f 27/4/4 107/11/4 108/11/4 29/4/4
f 83/11/6 62/11/6 107/11/6 118/11/6
f 47/36/1 126/47/1 142/49/1 111/37/1
f 89/27/6 138/46/6 141/46/6 119/27/6
f 69/35/1 133/43/1 140/43/1 97/35/1
f 88/30/6 136/44/6 139/48/6 105/21/6
f 153/52/3 127/52/3 135/52/3 158/52/3
f 73/27/2 134/46/2 138/46/2 89/27/2
f 157/48/3 132/48/3 137/48/3 160/48/3
f 119/27/6 141/46/6 135/52/6 86/8/6
f 105/21/6 139/48/6 137/48/6 90/21/6
f 97/35/1 140/43/1 129/50/1 50/38/1
f 49/30/2 128/44/2 136/44/2 88/30/2
f 111/37/1 142/49/1 131/49/1 70/37/1
f 208/40/3 215/55/3 130/54/3 44/41/3
f 48/8/6 127/52/6 123/52/6 43/8/6
f 207/39/2 216/56/2 122/44/2 42/30/2
f 50/38/1 129/50/1 121/50/1 41/38/1
f 70/37/1 131/49/1 124/42/1 45/34/1
f 74/21/6 132/48/6 125/45/6 46/22/6
f 44/36/1 130/47/1 126/47/1 47/36/1
f 46/22/6 125/45/6 134/46/6 73/27/6
f 42/30/6 122/44/6 128/44/6 49/30/6
f 45/34/1 124/42/1 133/43/1 69/35/1
f 84/13/3 157/48/3 160/48/3 92/13/3
f 58/4/3 153/52/3 158/52/3 85/4/3
f 126/47/1 152/47/1 164/49/1 142/49/1
f 137/48/4 139/48/4 168/48/4 166/48/4
f 133/43/1 144/43/1 162/43/1 140/43/1
f 136/44/6 159/44/6 161/48/6 139/48/6
f 134/46/2 145/46/2 146/46/2 138/46/2
f 141/46/6 163/46/6 158/52/6 135/52/6
f 161/48/5 160/48/5 165/48/5 167/48/5
f 140/43/1 162/43/1 155/50/1 129/50/1
f 128/44/2 154/44/2 159/44/2 136/44/2
f 142/49/1 164/49/1 156/49/1 131/49/1
f 215/55/3 210/53/3 143/54/3 130/54/3
f 127/52/6 153/52/6 149/52/6 123/52/6
f 216/56/2 209/51/2 148/44/2 122/44/2
f 129/50/1 155/50/1 147/50/1 121/50/1
f 131/49/1 156/49/1 150/42/1 124/42/1
f 132/48/6 157/48/6 151/45/6 125/45/6
f 130/47/1 143/47/1 152/47/1 126/47/1
f 125/45/6 151/45/6 145/46/6 134/46/6
f 122/44/6 148/44/6 154/44/6 128/44/6
f 124/42/1 150/42/1 144/43/1 133/43/1
f 171/46/6 172/46/6 169/46/6 170/46/6
f 168/48/6 167/48/6 165/48/6 166/48/6
f 187/46/1 188/46/1 175/46/1 176/46/1
f 183/48/1 184/48/1 179/48/1 180/48/1
f 182/48/5 183/48/5 180/48/5 177/48/5
f 146/46/5 163/46/5 169/46/5 172/46/5
f 186/46/4 187/46/4 176/46/4 173/46/4
f 141/46/4 138/46/4 171/46/4 170/46/4
f 163/46/3 141/46/3 174/46/3 173/46/3
f 141/46/3 170/46/3 175/46/3 174/46/3
f 170/46/3 169/46/3 176/46/3 175/46/3
f 169/46/3 163/46/3 173/46/3 176/46/3
f 139/48/2 161/48/2 178/48/2 177/48/2
f 161/48/2 167/48/2 179/48/2 178/48/2
f 167/48/2 168/48/2 180/48/2 179/48/2
f 168/48/2 139/48/2 177/48/2 180/48/2
f 160/48/3 137/48/3 182/48/3 181/48/3
f 137/48/3 166/48/3 183/48/3 182/48/3
f 166/48/3 165/48/3 184/48/3 183/48/3
f 165/48/3 160/48/3 181/48/3 184/48/3
f 138/46/2 146/46/2 186/46/2 185/46/2
f 146/46/2 172/46/2 187/46/2 186/46/2
f 172/46/2 171/46/2 188/46/2 187/46/2
f 171/46/2 138/46/2 185/46/2 188/46/2
f 188/46/5 185/46/5 174/46/5 175/46/5
f 185/46/6 186/46/6 173/46/6 174/46/6
f 184/48/4 181/48/4 178/48/4 179/48/4
f 181/48/6 182/48/6 177/48/6 178/48/6
f 121/50/2 147/50/2 209/51/2 216/56/2
f 123/52/3 149/52/3 210/53/3 215/55/3
f 41/38/2 121/50/2 216/56/2 207/39/2
f 43/8/3 123/52/3 215/55/3 208/40/3
f 72/57/4 203/28/4 213/28/4 112/57/4
f 66/11/5 202/26/5 214/26/5 109/11/5
f 37/3/5 206/31/5 211/16/5 95/13/5
f 36/58/4 205/29/4 212/20/4 98/59/4
f 109/11/5 214/26/5 195/9/5 26/4/5
f 112/57/4 213/28/4 193/7/4 25/60/4
f 98/59/4 212/20/4 200/20/4 71/59/4
f 95/13/5 211/16/5 198/16/5 65/13/5
f 149/52/3 54/4/3 196/5/3 210/53/3
f 147/50/2 52/1/2 197/2/2 209/51/2
f 5/8/3 43/8/3 208/40/3 194/40/3
f 3/38/2 41/38/2 207/39/2 204/39/2
f 8/3/5 190/31/5 206/31/5 37/3/5
f 3/58/4 204/29/4 205/29/4 36/58/4
f 17/61/4 201/23/4 203/28/4 72/57/4
f 20/12/5 199/19/5 202/26/5 66/11/5
f 71/59/4 200/20/4 201/23/4 17/61/4
f 65/13/5 198/16/5 199/19/5 20/12/5
f 52/1/2 10/1/2 189/2/2 197/2/2
f 54/4/3 12/4/3 191/5/3 196/5/3
f 26/4/5 195/9/5 192/9/5 6/4/5
f 25/60/4 193/7/4 194/7/4 1/60/4
f 12/4/3 6/4/3 192/5/3 191/5/3
f 10/1/2 4/1/2 190/2/2 189/2/2
