# Blender 5.0.1
# www.blender.org
mtllib armoire_ouverte_chambre.mtl
o Armoire_ouverte
v -1.144000 -0.000000 -0.200000
v -1.144000 2.288000 -0.200000
v 1.144000 0.000000 -0.200000
v 1.144000 2.288000 -0.200000
v -1.144000 -0.000000 0.200000
v -1.144000 2.288000 0.200000
v 1.144000 0.000000 0.200000
v 1.144000 2.288000 0.200000
v -1.144000 2.173600 -0.200000
v 1.144000 2.173600 -0.200000
v 1.144000 2.173600 0.200000
v -1.144000 2.173600 0.200000
v 1.144000 2.288000 0.230000
v -1.144000 2.288000 0.230000
v 1.144000 2.173600 0.215000
v -1.144000 2.173600 0.215000
v 0.000000 0.000000 -0.200000
v -0.000000 2.288000 -0.200000
v 0.000000 0.000000 0.200000
v -0.000000 2.288000 0.200000
v -0.000000 2.173600 0.200000
v -0.000000 2.173600 -0.200000
v -0.000000 2.288000 0.230000
v -0.000000 2.173600 0.215000
v -1.058200 -0.000000 -0.200000
v -1.058200 2.288000 0.200000
v -1.058200 2.173600 0.200000
v -1.058200 2.288000 0.230000
v -1.058200 2.173600 0.215000
v -1.058200 2.288000 -0.200000
v -1.058200 -0.000000 0.200000
v -1.058200 2.173600 -0.200000
v 1.058200 2.288000 -0.200000
v 1.058200 0.000000 0.200000
v 1.058200 2.173600 -0.200000
v 1.058200 0.000000 -0.200000
v 1.058200 2.288000 0.200000
v 1.058200 2.173600 0.200000
v 1.058200 2.288000 0.230000
v 1.058200 2.173600 0.215000
v 1.144000 0.228800 -0.200000
v 1.144000 0.228800 0.200000
v -1.144000 0.228800 0.200000
v -1.144000 0.228800 -0.200000
v 0.000000 0.228800 -0.200000
v 0.000000 0.228800 0.200000
v -1.058200 0.228800 -0.200000
v -1.058200 0.228800 0.200000
v 1.058200 0.228800 0.200000
v 1.058200 0.228800 -0.200000
v -1.144000 2.116400 -0.200000
v 1.144000 2.116400 -0.200000
v 1.144000 2.116400 0.200000
v -1.144000 2.116400 0.200000
v -0.000000 2.116400 -0.200000
v -0.000000 2.116400 0.200000
v -1.058200 2.116400 -0.200000
v -1.058200 2.116400 0.200000
v 1.058200 2.116400 0.200000
v 1.058200 2.116400 -0.200000
v 0.010582 2.173600 0.200000
v -0.010582 2.173600 0.200000
v 0.010582 2.173600 0.215000
v -0.010582 2.173600 0.215000
v 0.010582 2.288000 0.200000
v -0.010582 2.288000 0.200000
v 0.010582 2.288000 0.230000
v -0.010582 2.288000 0.230000
v 0.010582 0.228800 -0.200000
v -0.010582 0.228800 -0.200000
v 0.010582 0.000000 -0.200000
v -0.010582 0.000000 -0.200000
v -0.010582 0.228800 0.200000
v 0.010582 0.228800 0.200000
v -0.010582 0.000000 0.200000
v 0.010582 0.000000 0.200000
v -0.010582 2.288000 -0.200000
v 0.010582 2.288000 -0.200000
v -0.010582 2.173600 -0.200000
v 0.010582 2.173600 -0.200000
v 0.010582 2.116400 -0.200000
v -0.010582 2.116400 -0.200000
v -0.010582 2.116400 0.200000
v 0.010582 2.116400 0.200000
v 0.039182 2.173600 0.200000
v 0.039182 2.173600 0.215000
v 0.039182 2.288000 0.200000
v 0.039182 2.288000 0.230000
v 0.039182 0.228800 -0.200000
v 0.039182 0.000000 -0.200000
v 0.039182 0.228800 0.200000
v 0.039182 0.000000 0.200000
v 0.039182 2.288000 -0.200000
v 0.039182 2.173600 -0.200000
v 0.039182 2.116400 -0.200000
v 0.039182 2.116400 0.200000
v -0.039182 2.173600 0.200000
v -0.039182 2.173600 0.215000
v -0.039182 2.288000 0.200000
v -0.039182 2.288000 0.230000
v -0.039182 0.228800 -0.200000
v -0.039182 0.000000 -0.200000
v -0.039182 0.228800 0.200000
v -0.039182 0.000000 0.200000
v -0.039182 2.288000 -0.200000
v -0.039182 2.173600 -0.200000
v -0.039182 2.116400 -0.200000
v -0.039182 2.116400 0.200000
v 1.144000 1.172600 -0.200000
v 1.144000 1.172600 0.200000
v -1.144000 1.172600 0.200000
v 0.000000 1.172600 -0.200000
v -0.000000 1.172600 0.200000
v -1.058200 1.172600 -0.200000
v -1.058200 1.172600 0.200000
v 1.058200 1.172600 0.200000
v 1.058200 1.172600 -0.200000
v -1.144000 1.172600 -0.200000
v -0.010582 1.172600 -0.200000
v 0.010582 1.172600 0.200000
v 0.010582 1.172600 -0.200000
v -0.010582 1.172600 0.200000
v 0.039182 1.172600 -0.200000
v -0.039182 1.172600 -0.200000
v -1.144000 1.458600 -0.200000
v 0.010582 1.458600 -0.200000
v -0.010582 1.458600 0.200000
v 1.144000 1.458600 -0.200000
v 1.144000 1.458600 0.200000
v -1.144000 1.458600 0.200000
v 0.000000 1.458600 -0.200000
v -0.000000 1.458600 0.200000
v -1.058200 1.458600 -0.200000
v -1.058200 1.458600 0.200000
v 1.058200 1.458600 0.200000
v 1.058200 1.458600 -0.200000
v -0.010582 1.458600 -0.200000
v 0.010582 1.458600 0.200000
v 0.039182 1.458600 -0.200000
v -0.039182 1.458600 -0.200000
v -1.058200 0.228800 -0.180000
v 1.058200 0.228800 -0.180000
v -1.058200 2.116400 -0.180000
v 1.058200 2.116400 -0.180000
v -0.010582 0.228800 -0.180000
v 0.010582 0.228800 -0.180000
v -0.010582 2.116400 -0.180000
v 0.010582 2.116400 -0.180000
v 0.039182 0.228800 -0.180000
v 0.039182 2.116400 -0.180000
v -0.039182 0.228800 -0.180000
v -0.039182 2.116400 -0.180000
v -1.058200 1.172600 -0.180000
v 1.058200 1.172600 -0.180000
v 0.010582 1.172600 -0.180000
v -0.010582 1.172600 -0.180000
v -0.010582 1.458600 -0.180000
v -1.058200 1.458600 -0.180000
v 1.058200 1.458600 -0.180000
v 0.010582 1.458600 -0.180000
v -0.039182 1.172600 -0.180000
v -0.039182 1.458600 -0.180000
v 0.039182 1.172600 -0.180000
v 0.039182 1.458600 -0.180000
v 1.144000 1.229800 -0.200000
v 1.144000 1.229800 0.200000
v -1.144000 1.229800 0.200000
v 0.000000 1.229800 -0.200000
v -0.000000 1.229800 0.200000
v -1.058200 1.229800 -0.200000
v -1.058200 1.229800 0.200000
v 1.058200 1.229800 0.200000
v 1.058200 1.229800 -0.200000
v -0.010582 1.229800 -0.200000
v 0.010582 1.229800 0.200000
v 0.039182 1.229800 -0.200000
v -0.039182 1.229800 -0.200000
v -1.144000 1.229800 -0.200000
v 0.010582 1.229800 -0.200000
v -0.010582 1.229800 0.200000
v -1.058200 1.229800 -0.180000
v 1.058200 1.229800 -0.180000
v 0.010582 1.229800 -0.180000
v -0.010582 1.229800 -0.180000
v -0.039182 1.229800 -0.180000
v 0.039182 1.229800 -0.180000
v -1.058200 1.229800 0.180000
v -1.058200 1.172600 0.180000
v -0.039182 1.172600 0.180000
v -0.010582 1.172600 0.180000
v -0.039182 1.229800 0.180000
v -0.010582 1.229800 0.180000
v 0.010582 1.172600 0.180000
v 0.010582 1.229800 0.180000
v 1.058200 1.172600 0.180000
v 1.058200 1.229800 0.180000
v 0.039182 1.172600 0.180000
v 0.039182 1.229800 0.180000
v -1.058200 0.228800 0.200000
v 1.058200 0.228800 0.200000
v -1.058200 2.116400 0.200000
v 1.058200 2.116400 0.200000
v -0.876283 0.228800 1.231701
v 0.876283 0.228800 1.231702
v -0.876283 2.116400 1.231701
v 0.876283 2.116400 1.231702
v -1.077896 2.116400 0.203473
v -1.077896 0.228800 0.203473
v 1.077896 2.116400 0.203473
v 1.077896 0.228800 0.203473
v -0.895979 0.228800 1.235175
v 0.895979 0.228800 1.235175
v -0.895979 2.116400 1.235175
v 0.895979 2.116400 1.235175
v 0.881249 0.228800 1.203537
v 0.881249 2.116400 1.203537
v 0.900945 0.228800 1.207010
v 0.900945 2.116400 1.207010
v -0.881249 0.228800 1.203536
v -0.881249 2.116400 1.203536
v -0.900945 0.228800 1.207009
v -0.900945 2.116400 1.207009
v -1.058200 1.172600 0.200000
v 1.058200 1.172600 0.200000
v 0.876283 1.172600 1.231702
v -0.876283 1.172600 1.231701
v -1.077896 1.172600 0.203473
v 1.077896 1.172600 0.203473
v 0.895979 1.172600 1.235175
v -0.895979 1.172600 1.235175
v 0.900945 1.172600 1.207010
v -0.900945 1.172600 1.207009
v -0.876283 1.458600 1.231701
v -0.895979 1.458600 1.235175
v -1.058200 1.458600 0.200000
v 1.058200 1.458600 0.200000
v 0.876283 1.458600 1.231702
v -1.077896 1.458600 0.203473
v 1.077896 1.458600 0.203473
v 0.895979 1.458600 1.235175
v 0.900945 1.458600 1.207010
v -0.900945 1.458600 1.207009
v 0.935371 1.458600 1.242121
v 0.935371 1.172600 1.242121
v 0.940338 1.458600 1.213956
v 0.940338 1.172600 1.213956
v -0.940338 1.458600 1.213955
v -0.940338 1.172600 1.213955
v -0.935371 1.172600 1.242121
v -0.935371 1.458600 1.242121
v -0.905869 1.430000 1.207877
v -0.905869 1.201200 1.207877
v -0.935414 1.201200 1.213088
v -0.935414 1.430000 1.213088
v 0.905869 1.201200 1.207877
v 0.905869 1.430000 1.207877
v 0.935414 1.430000 1.213088
v 0.935414 1.201200 1.213088
v 0.900903 1.430000 1.236042
v 0.900903 1.201200 1.236042
v 0.930447 1.201200 1.241253
v 0.930447 1.430000 1.241253
v -0.900903 1.201200 1.236042
v -0.900903 1.430000 1.236042
v -0.930447 1.430000 1.241253
v -0.930447 1.201200 1.241253
v 0.881249 1.172600 1.203537
v 0.881249 1.458600 1.203537
v -0.881249 1.458600 1.203536
v -0.881249 1.172600 1.203536
v 1.144000 2.173600 0.000000
v 1.144000 2.288000 0.000000
v -1.144000 2.173600 -0.000000
v -1.144000 2.288000 -0.000000
v -1.058200 -0.000000 -0.000000
v -1.144000 -0.000000 -0.000000
v -1.058200 2.288000 -0.000000
v -1.144000 2.116400 -0.000000
v 1.144000 2.116400 0.000000
v 0.010582 2.288000 0.000000
v -0.000000 2.288000 0.000000
v 0.010582 0.000000 0.000000
v 0.000000 0.000000 0.000000
v -0.010582 2.288000 0.000000
v -0.010582 0.000000 0.000000
v 1.144000 0.000000 0.000000
v 1.058200 0.000000 0.000000
v 1.058200 2.288000 0.000000
v 1.144000 0.228800 0.000000
v -1.144000 0.228800 -0.000000
v 1.144000 1.458600 0.000000
v -1.144000 1.458600 -0.000000
v 0.039182 2.288000 0.000000
v 0.039182 0.000000 0.000000
v -0.039182 0.000000 0.000000
v -0.039182 2.288000 0.000000
v -1.144000 1.172600 -0.000000
v 1.144000 1.172600 0.000000
v -1.144000 1.229800 -0.000000
v 1.144000 1.229800 0.000000
vn -0.0000 -0.0000 -1.0000
vn 1.0000 -0.0000 -0.0000
vn -1.0000 -0.0000 -0.0000
vn -0.0000 -1.0000 -0.0000
vn -0.0000 1.0000 -0.0000
vn -0.0000 -0.0000 1.0000
vn -0.0000 -0.1300 0.9915
vn 0.1737 -0.0000 -0.9848
vn 0.9848 -0.0000 0.1736
vn -0.9848 -0.0000 0.1736
vn -0.1737 -0.0000 0.9848
vn 0.1737 -0.0000 0.9848
vn -0.1737 -0.0000 -0.9848
vn -0.9848 -0.0000 0.1737
vn 0.9848 -0.0000 0.1737
vn 0.9848 -0.0000 -0.1737
vn -0.9848 -0.0000 -0.1737
vn -0.1736 -0.0000 -0.9848
vn 0.1736 -0.0000 -0.9848
vn -0.1736 -0.0000 0.9848
vn 0.1736 -0.0000 0.9848
vn -0.9848 -0.0000 -0.1736
vn 0.9848 -0.0000 -0.1736
vt 0.625000 0.250000
vt 0.625000 0.375000
vt 0.625000 0.500000
vt 0.625000 0.750000
vt 0.625000 0.875000
vt 0.625000 1.000000
vt 0.250000 0.750000
vt 0.375000 0.750000
vt 0.250000 0.750000
vt 0.750000 0.750000
vt 0.875000 0.750000
vt 0.625000 0.626250
vt 0.625000 0.625000
vt 0.625000 0.623750
vt 0.625000 0.123750
vt 0.625000 0.125000
vt 0.750000 0.623750
vt 0.875000 0.623750
vt 0.875000 0.625000
vt 0.750000 0.625000
vt 0.250000 0.623750
vt 0.375000 0.623750
vt 0.375000 0.625000
vt 0.250000 0.625000
vt 0.625000 0.000000
vt 0.875000 0.626250
vt 0.750000 0.626250
vt 0.375000 0.626250
vt 0.250000 0.626250
vt 0.250000 0.500000
vt 0.375000 0.500000
vt 0.250000 0.500000
vt 0.750000 0.500000
vt 0.875000 0.500000
vt 0.750000 0.500000
vt 0.625000 0.126250
vt 0.375000 0.125000
vt 0.375000 0.126250
vt 0.375000 0.000000
vt 0.375000 0.123750
vt 0.375000 0.250000
vt 0.375000 0.375000
vt 0.375000 0.875000
vt 0.375000 1.000000
vt 0.500000 0.125000
vt 0.500000 0.126250
vt 0.500000 0.500000
vt 0.500000 0.625000
vt 0.500000 0.626250
vt 0.500000 0.000000
vt 0.500000 0.623750
vt 0.500000 0.123750
vt 0.500000 0.250000
vt 0.500000 0.375000
vt 0.500000 0.750000
vt 0.500000 0.875000
vt 0.500000 1.000000
vt 0.750000 0.626250
vt 0.500000 0.620372
vt 0.500000 0.629628
vt 0.537879 0.626250
vt 0.125000 0.626250
vt 0.125000 0.500000
vt 0.125000 0.623750
vt 0.125000 0.750000
vt 0.125000 0.625000
s 1
f 35/1/1 33/1/1 4/1/1 10/1/1
f 271/2/2 272/2/2 8/3/2 11/3/2
f 6/4/3 12/4/3 16/4/3 14/4/3
f 273/5/3 274/5/3 2/6/3 9/6/3
f 275/7/4 31/8/4 5/8/4 276/9/4
f 277/10/5 30/11/5 2/11/5 274/10/5
f 278/5/3 273/5/3 9/6/3 51/6/3
f 58/4/6 27/4/6 12/4/6 54/4/6
f 279/2/2 271/2/2 11/3/2 53/3/2
f 60/1/1 35/1/1 10/1/1 52/1/1
f 29/4/7 28/4/7 14/4/7 16/4/7
f 11/3/2 8/3/2 13/3/2 15/3/2
f 26/4/5 6/4/5 14/4/5 28/4/5
f 38/3/4 11/3/4 15/3/4 40/3/4
f 62/12/4 21/13/4 24/13/4 64/12/4
f 65/14/5 20/13/5 23/13/5 67/14/5
f 63/14/7 67/14/7 23/13/7 24/13/7
f 82/15/1 79/15/1 22/16/1 55/16/1
f 84/14/6 61/14/6 21/13/6 56/13/6
f 280/17/5 78/18/5 18/19/5 281/20/5
f 282/21/4 76/22/4 19/23/4 283/24/4
f 79/15/1 77/15/1 18/16/1 22/16/1
f 9/25/1 2/25/1 30/25/1 32/25/1
f 51/25/1 9/25/1 32/25/1 57/25/1
f 12/4/4 27/4/4 29/4/4 16/4/4
f 20/13/5 66/12/5 68/12/5 23/13/5
f 24/13/7 23/13/7 68/12/7 64/12/7
f 56/13/6 21/13/6 62/12/6 83/12/6
f 281/20/5 18/19/5 77/26/5 284/27/5
f 283/24/4 19/23/4 75/28/4 285/29/4
f 286/30/4 7/31/4 34/31/4 287/32/4
f 272/33/5 4/34/5 33/34/5 288/35/5
f 53/3/6 11/3/6 38/3/6 59/3/6
f 15/3/7 13/3/7 39/3/7 40/3/7
f 8/3/5 37/3/5 39/3/5 13/3/5
f 21/13/4 61/14/4 63/14/4 24/13/4
f 55/16/1 22/16/1 80/36/1 81/36/1
f 22/16/1 18/16/1 78/36/1 80/36/1
f 17/37/1 45/37/1 69/38/1 71/38/1
f 7/31/6 42/31/6 49/31/6 34/31/6
f 19/23/6 46/23/6 73/28/6 75/28/6
f 1/39/1 44/39/1 47/39/1 25/39/1
f 76/22/6 74/22/6 46/23/6 19/23/6
f 72/40/1 70/40/1 45/37/1 17/37/1
f 36/41/1 50/41/1 41/41/1 3/41/1
f 286/42/2 289/42/2 42/31/2 7/31/2
f 31/8/6 48/8/6 43/8/6 5/8/6
f 276/43/3 290/43/3 44/44/3 1/44/3
f 131/45/1 55/16/1 81/36/1 126/46/1
f 129/47/6 53/3/6 59/3/6 135/47/6
f 132/48/6 56/13/6 83/12/6 127/49/6
f 125/50/1 51/25/1 57/25/1 133/50/1
f 138/51/6 84/14/6 56/13/6 132/48/6
f 137/52/1 82/15/1 55/16/1 131/45/1
f 136/53/1 60/1/1 52/1/1 128/53/1
f 291/54/2 279/2/2 53/3/2 129/47/2
f 134/55/6 58/4/6 54/4/6 130/55/6
f 292/56/3 278/5/3 51/6/3 125/57/3
f 85/14/4 38/3/4 40/3/4 86/14/4
f 108/12/6 97/12/6 27/4/6 58/4/6
f 86/14/7 88/14/7 67/14/7 63/14/7
f 97/12/4 62/12/4 64/12/4 98/12/4
f 99/12/5 26/4/5 28/4/5 100/12/5
f 293/17/5 93/18/5 78/18/5 280/17/5
f 87/14/5 65/14/5 67/14/5 88/14/5
f 98/12/7 100/12/7 28/4/7 29/4/7
f 90/38/1 89/38/1 50/41/1 36/41/1
f 140/52/1 107/15/1 82/15/1 137/52/1
f 294/21/4 92/22/4 76/22/4 282/21/4
f 102/40/1 101/40/1 70/40/1 72/40/1
f 104/28/6 103/28/6 48/8/6 31/8/6
f 295/29/4 104/28/4 31/8/4 275/7/4
f 92/22/6 91/22/6 74/22/6 76/22/6
f 94/36/1 93/36/1 33/1/1 35/1/1
f 296/58/5 105/26/5 30/11/5 277/10/5
f 106/15/1 105/15/1 77/15/1 79/15/1
f 95/36/1 94/36/1 35/1/1 60/1/1
f 139/46/1 95/36/1 60/1/1 136/53/1
f 107/15/1 106/15/1 79/15/1 82/15/1
f 96/14/6 85/14/6 61/14/6 84/14/6
f 59/3/6 38/3/6 85/14/6 96/14/6
f 126/46/1 81/36/1 95/36/1 139/46/1
f 81/36/1 80/36/1 94/36/1 95/36/1
f 80/36/1 78/36/1 93/36/1 94/36/1
f 34/31/6 49/31/6 91/22/6 92/22/6
f 287/32/4 34/31/4 92/22/4 294/21/4
f 71/38/1 69/38/1 89/38/1 90/38/1
f 37/3/5 87/14/5 88/14/5 39/3/5
f 288/35/5 33/34/5 93/18/5 293/17/5
f 40/3/7 39/3/7 88/14/7 86/14/7
f 61/14/4 85/14/4 86/14/4 63/14/4
f 57/25/1 32/25/1 106/15/1 107/15/1
f 32/25/1 30/25/1 105/15/1 106/15/1
f 284/27/5 77/26/5 105/26/5 296/58/5
f 285/29/4 75/28/4 104/28/4 295/29/4
f 75/28/6 73/28/6 103/28/6 104/28/6
f 25/39/1 47/39/1 101/40/1 102/40/1
f 133/50/1 57/25/1 107/15/1 140/52/1
f 64/12/7 68/12/7 100/12/7 98/12/7
f 66/12/5 99/12/5 100/12/5 68/12/5
f 27/4/4 97/12/4 98/12/4 29/4/4
f 83/12/6 62/12/6 97/12/6 108/12/6
f 47/39/1 114/50/1 124/52/1 101/40/1
f 69/38/1 121/46/1 123/46/1 89/38/1
f 89/38/1 123/46/1 117/53/1 50/41/1
f 101/40/1 124/52/1 119/52/1 70/40/1
f 290/43/3 297/56/3 118/57/3 44/44/3
f 48/8/6 115/55/6 111/55/6 43/8/6
f 289/42/2 298/54/2 110/47/2 42/31/2
f 50/41/1 117/53/1 109/53/1 41/41/1
f 70/40/1 119/52/1 112/45/1 45/37/1
f 74/22/6 120/51/6 113/48/6 46/23/6
f 44/39/1 118/50/1 114/50/1 47/39/1
f 46/23/6 113/48/6 122/49/6 73/28/6
f 42/31/6 110/47/6 116/47/6 49/31/6
f 45/37/1 112/45/1 121/46/1 69/38/1
f 170/50/1 133/50/1 140/52/1 177/52/1
f 179/46/1 126/46/1 139/46/1 176/46/1
f 176/46/1 139/46/1 136/53/1 173/53/1
f 177/52/1 140/52/1 137/52/1 174/52/1
f 299/56/3 292/56/3 125/57/3 178/57/3
f 171/55/6 134/55/6 130/55/6 167/55/6
f 300/54/2 291/54/2 129/47/2 166/47/2
f 173/53/1 136/53/1 128/53/1 165/53/1
f 174/52/1 137/52/1 131/45/1 168/45/1
f 175/51/6 138/51/6 132/48/6 169/48/6
f 178/50/1 125/50/1 133/50/1 170/50/1
f 169/48/6 132/48/6 127/49/6 180/49/6
f 166/47/6 129/47/6 135/47/6 172/47/6
f 168/45/1 131/45/1 126/46/1 179/46/1
f 48/8/5 103/28/5 151/28/5 141/8/5
f 73/28/3 122/49/3 190/49/3 156/49/3 145/28/3
f 84/14/2 138/51/2 160/51/2 148/14/2
f 155/51/4 163/59/4 197/59/4 193/51/4
f 115/55/2 48/8/2 141/8/2 153/55/2 188/55/2
f 103/28/5 73/28/5 145/28/5 151/28/5
f 172/47/3 135/47/3 159/47/3 182/47/3 196/47/3
f 49/31/3 116/47/3 195/47/3 154/47/3 142/31/3
f 74/22/5 91/22/5 149/22/5 146/22/5
f 58/4/2 134/55/2 158/55/2 143/4/2
f 83/12/4 108/12/4 152/12/4 147/12/4
f 59/3/4 96/14/4 150/14/4 144/3/4
f 120/51/2 74/22/2 146/22/2 155/51/2 193/51/2
f 180/49/3 127/49/3 157/49/3 184/49/3 192/49/3
f 108/12/4 58/4/4 143/4/4 152/12/4
f 135/47/3 59/3/3 144/3/3 159/47/3
f 96/14/4 84/14/4 148/14/4 150/14/4
f 127/49/3 83/12/3 147/12/3 157/49/3
f 91/22/5 49/31/5 142/31/5 149/22/5
f 181/55/6 185/60/6 162/60/6 158/55/6
f 158/55/6 162/60/6 152/12/6 143/4/6
f 156/49/6 161/60/6 151/28/6 145/28/6
f 142/31/6 154/47/6 163/59/6 149/22/6
f 151/28/6 161/60/6 153/55/6 141/8/6
f 161/60/4 156/49/4 190/49/4 189/60/4
f 152/12/6 162/60/6 157/49/6 147/12/6
f 164/59/6 186/59/6 182/47/6 159/47/6
f 160/51/6 164/59/6 150/14/6 148/14/6
f 183/51/6 186/59/6 164/59/6 160/51/6
f 163/59/4 154/47/4 195/47/4 197/59/4
f 149/22/6 163/59/6 155/51/6 146/22/6
f 150/14/6 164/59/6 159/47/6 144/3/6
f 182/47/5 186/59/5 198/59/5 196/47/5
f 162/60/6 185/60/6 184/49/6 157/49/6
f 184/49/5 185/60/5 191/60/5 192/49/5
f 138/51/2 175/51/2 194/51/2 183/51/2 160/51/2
f 186/59/5 183/51/5 194/51/5 198/59/5
f 134/55/2 171/55/2 187/55/2 181/55/2 158/55/2
f 112/45/1 168/45/1 179/46/1 121/46/1
f 110/47/6 166/47/6 172/47/6 116/47/6
f 113/48/6 169/48/6 180/49/6 122/49/6
f 118/50/1 178/50/1 170/50/1 114/50/1
f 120/51/6 175/51/6 169/48/6 113/48/6
f 119/52/1 174/52/1 168/45/1 112/45/1
f 117/53/1 173/53/1 165/53/1 109/53/1
f 298/54/2 300/54/2 166/47/2 110/47/2
f 115/55/6 171/55/6 167/55/6 111/55/6
f 297/56/3 299/56/3 178/57/3 118/57/3
f 124/52/1 177/52/1 174/52/1 119/52/1
f 123/46/1 176/46/1 173/53/1 117/53/1
f 121/46/1 179/46/1 176/46/1 123/46/1
f 114/50/1 170/50/1 177/52/1 124/52/1
f 191/60/6 189/60/6 190/49/6 192/49/6
f 188/55/6 189/60/6 191/60/6 187/55/6
f 185/60/5 181/55/5 187/55/5 191/60/5
f 153/55/4 161/60/4 189/60/4 188/55/4
f 171/55/2 115/55/2 188/55/2 187/55/2
f 193/51/6 197/59/6 198/59/6 194/51/6
f 122/49/3 180/49/3 192/49/3 190/49/3
f 198/59/6 197/59/6 195/47/6 196/47/6
f 175/51/2 120/51/2 193/51/2 194/51/2
f 116/47/3 172/47/3 196/47/3 195/47/3
f 236/47/8 202/3/8 209/3/8 239/47/8
f 216/14/5 206/14/5 214/14/5 218/14/5
f 241/51/9 218/14/9 214/14/9 240/51/9
f 242/49/10 222/12/10 207/4/10 238/55/10
f 219/28/4 203/28/4 211/28/4 221/28/4
f 225/51/11 204/22/11 212/22/11 229/51/11
f 233/49/12 205/12/12 213/12/12 234/49/12
f 215/22/4 200/31/4 210/31/4 217/22/4
f 220/12/5 201/4/5 207/4/5 222/12/5
f 223/55/13 199/8/13 208/8/13 227/55/13
f 204/22/4 215/22/4 217/22/4 212/22/4
f 239/47/9 209/3/9 218/14/9 241/51/9
f 202/3/5 216/14/5 218/14/5 209/3/5
f 205/12/5 220/12/5 222/12/5 213/12/5
f 199/8/4 219/28/4 221/28/4 208/8/4
f 234/49/10 213/12/10 222/12/10 242/49/10
f 211/28/10 230/49/10 232/49/10 221/28/10
f 210/31/9 228/47/9 231/51/9 217/22/9
f 235/55/13 223/55/13 227/55/13 238/55/13
f 203/28/12 226/49/12 230/49/12 211/28/12
f 237/51/11 225/51/11 229/51/11 240/51/11
f 221/28/10 232/49/10 227/55/10 208/8/10
f 217/22/9 231/51/9 229/51/9 212/22/9
f 200/31/8 224/47/8 228/47/8 210/31/8
f 206/14/11 237/51/11 240/51/11 214/14/11
f 201/4/13 235/55/13 238/55/13 207/4/13
f 229/51/4 231/51/4 246/51/4 244/51/4
f 228/47/9 239/47/9 241/51/9 231/51/9
f 226/49/12 233/49/12 234/49/12 230/49/12
f 232/49/10 242/49/10 238/55/10 227/55/10
f 241/51/5 240/51/5 243/51/5 245/51/5
f 224/47/8 236/47/8 239/47/8 228/47/8
f 249/49/14 250/49/14 247/49/14 248/49/14
f 246/51/15 245/51/15 243/51/15 244/51/15
f 265/49/16 266/49/16 253/49/16 254/49/16
f 261/51/17 262/51/17 257/51/17 258/51/17
f 260/51/5 261/51/5 258/51/5 255/51/5
f 234/49/5 242/49/5 247/49/5 250/49/5
f 264/49/4 265/49/4 254/49/4 251/49/4
f 232/49/4 230/49/4 249/49/4 248/49/4
f 242/49/18 232/49/18 252/49/18 251/49/18
f 232/49/18 248/49/18 253/49/18 252/49/18
f 248/49/18 247/49/18 254/49/18 253/49/18
f 247/49/18 242/49/18 251/49/18 254/49/18
f 231/51/19 241/51/19 256/51/19 255/51/19
f 241/51/19 245/51/8 257/51/19 256/51/19
f 245/51/8 246/51/8 258/51/19 257/51/19
f 246/51/8 231/51/19 255/51/19 258/51/19
f 240/51/11 229/51/11 260/51/20 259/51/20
f 229/51/11 244/51/11 261/51/20 260/51/20
f 244/51/11 243/51/11 262/51/20 261/51/20
f 243/51/11 240/51/11 259/51/20 262/51/20
f 230/49/12 234/49/12 264/49/21 263/49/21
f 234/49/12 250/49/12 265/49/21 264/49/21
f 250/49/12 249/49/12 266/49/21 265/49/21
f 249/49/12 230/49/12 263/49/21 266/49/21
f 266/49/5 263/49/5 252/49/5 253/49/5
f 263/49/10 264/49/10 251/49/10 252/49/10
f 262/51/4 259/51/4 256/51/4 257/51/4
f 259/51/9 260/51/9 255/51/9 256/51/9
f 200/31/22 215/22/22 267/59/22 224/47/22
f 236/47/22 268/59/22 216/14/22 202/3/22
f 224/47/22 267/59/22 268/59/22 236/47/22
f 216/14/22 268/59/22 237/51/22 206/14/22
f 267/59/22 215/22/22 204/22/22 225/51/22
f 268/59/22 267/59/22 225/51/22 237/51/22
f 223/55/23 235/55/23 269/61/23 270/49/23
f 219/28/23 270/49/23 226/49/23 203/28/23
f 269/61/23 235/55/23 201/4/23 220/12/23
f 233/49/23 269/61/23 220/12/23 205/12/23
f 270/49/23 219/28/23 199/8/23 223/55/23
f 226/49/23 270/49/23 269/61/23 233/49/23
f 111/55/3 167/55/3 299/56/3 297/56/3
f 109/53/2 165/53/2 300/54/2 298/54/2
f 165/53/2 128/53/2 291/54/2 300/54/2
f 167/55/3 130/55/3 292/56/3 299/56/3
f 41/41/2 109/53/2 298/54/2 289/42/2
f 43/8/3 111/55/3 297/56/3 290/43/3
f 72/62/4 285/29/4 295/29/4 102/62/4
f 66/12/5 284/27/5 296/58/5 99/12/5
f 37/3/5 288/35/5 293/17/5 87/14/5
f 36/63/4 287/32/4 294/21/4 90/64/4
f 99/12/5 296/58/5 277/10/5 26/4/5
f 102/62/4 295/29/4 275/7/4 25/65/4
f 90/64/4 294/21/4 282/21/4 71/64/4
f 87/14/5 293/17/5 280/17/5 65/14/5
f 130/55/3 54/4/3 278/5/3 292/56/3
f 128/53/2 52/1/2 279/2/2 291/54/2
f 5/8/3 43/8/3 290/43/3 276/43/3
f 3/41/2 41/41/2 289/42/2 286/42/2
f 8/3/5 272/33/5 288/35/5 37/3/5
f 3/63/4 286/30/4 287/32/4 36/63/4
f 17/66/4 283/24/4 285/29/4 72/62/4
f 20/13/5 281/20/5 284/27/5 66/12/5
f 71/64/4 282/21/4 283/24/4 17/66/4
f 65/14/5 280/17/5 281/20/5 20/13/5
f 52/1/2 10/1/2 271/2/2 279/2/2
f 54/4/3 12/4/3 273/5/3 278/5/3
f 26/4/5 277/10/5 274/10/5 6/4/5
f 25/65/4 275/7/4 276/9/4 1/65/4
f 12/4/3 6/4/3 274/5/3 273/5/3
f 10/1/2 4/1/2 272/2/2 271/2/2
