# Blender 4.0.2
# www.blender.org
mtllib calendrier.mtl
o Cylinder
v 0.002113 0.203660 -0.150000
v 0.002113 0.203660 0.150000
v 0.004227 0.200000 -0.150000
v 0.004226 0.200000 0.150000
v 0.002113 0.196340 -0.150000
v 0.002113 0.196340 0.150000
v -0.002113 0.196340 -0.150000
v -0.002113 0.196340 0.150000
v -0.004226 0.200000 -0.150000
v -0.004227 0.200000 0.150000
v -0.002113 0.203660 -0.150000
v -0.002113 0.203660 0.150000
v 0.005000 0.208660 -0.150000
v 0.010000 0.200000 -0.150000
v 0.010000 0.200000 0.150000
v 0.005000 0.208660 0.150000
v 0.005000 0.191340 -0.150000
v 0.005000 0.191340 0.150000
v -0.005000 0.191340 -0.150000
v -0.005000 0.191340 0.150000
v -0.010000 0.200000 -0.150000
v -0.010000 0.200000 0.150000
v -0.005000 0.208660 -0.150000
v -0.005000 0.208660 0.150000
v 0.005000 0.208660 -0.122727
v 0.005000 0.208660 -0.095455
v 0.005000 0.208660 -0.068182
v 0.005000 0.208660 -0.040909
v 0.005000 0.208660 -0.013636
v 0.005000 0.208660 0.013636
v 0.005000 0.208660 0.040909
v 0.005000 0.208660 0.068182
v 0.005000 0.208660 0.095455
v 0.005000 0.208660 0.122727
v 0.010000 0.200000 0.122727
v 0.010000 0.200000 0.095455
v 0.010000 0.200000 0.068182
v 0.010000 0.200000 0.040909
v 0.010000 0.200000 0.013636
v 0.010000 0.200000 -0.013636
v 0.010000 0.200000 -0.040909
v 0.010000 0.200000 -0.068182
v 0.010000 0.200000 -0.095455
v 0.010000 0.200000 -0.122727
v 0.005000 0.191340 0.122727
v 0.005000 0.191340 0.095455
v 0.005000 0.191340 0.068182
v 0.005000 0.191340 0.040909
v 0.005000 0.191340 0.013636
v 0.005000 0.191340 -0.013636
v 0.005000 0.191340 -0.040909
v 0.005000 0.191340 -0.068182
v 0.005000 0.191340 -0.095455
v 0.005000 0.191340 -0.122727
v -0.005000 0.191340 0.122727
v -0.005000 0.191340 0.095455
v -0.005000 0.191340 0.068182
v -0.005000 0.191340 0.040909
v -0.005000 0.191340 0.013636
v -0.005000 0.191340 -0.013636
v -0.005000 0.191340 -0.040909
v -0.005000 0.191340 -0.068182
v -0.005000 0.191340 -0.095455
v -0.005000 0.191340 -0.122727
v -0.010000 0.200000 0.122727
v -0.010000 0.200000 0.095455
v -0.010000 0.200000 0.068182
v -0.010000 0.200000 0.040909
v -0.010000 0.200000 0.013636
v -0.010000 0.200000 -0.013636
v -0.010000 0.200000 -0.040909
v -0.010000 0.200000 -0.068182
v -0.010000 0.200000 -0.095455
v -0.010000 0.200000 -0.122727
v -0.005000 0.208660 0.122727
v -0.005000 0.208660 0.095455
v -0.005000 0.208660 0.068182
v -0.005000 0.208660 0.040909
v -0.005000 0.208660 0.013636
v -0.005000 0.208660 -0.013636
v -0.005000 0.208660 -0.040909
v -0.005000 0.208660 -0.068182
v -0.005000 0.208660 -0.095455
v -0.005000 0.208660 -0.122727
v 0.002113 0.203660 -0.122727
v 0.002113 0.203660 -0.095455
v 0.002113 0.203660 -0.068182
v 0.002113 0.203660 -0.040909
v 0.002113 0.203660 -0.013636
v 0.002113 0.203660 0.013636
v 0.002113 0.203660 0.040909
v 0.002113 0.203660 0.068182
v 0.002113 0.203660 0.095455
v 0.002113 0.203660 0.122727
v -0.002113 0.203660 0.122727
v -0.002113 0.203660 0.095455
v -0.002113 0.203660 0.068182
v -0.002113 0.203660 0.040909
v -0.002113 0.203660 0.013636
v -0.002113 0.203660 -0.013636
v -0.002113 0.203660 -0.040909
v -0.002113 0.203660 -0.068182
v -0.002113 0.203660 -0.095455
v -0.002113 0.203660 -0.122727
v -0.004227 0.200000 0.122727
v -0.004227 0.200000 0.095455
v -0.004226 0.200000 0.068182
v -0.004226 0.200000 0.040909
v -0.004226 0.200000 0.013636
v -0.004226 0.200000 -0.013636
v -0.004226 0.200000 -0.040909
v -0.004226 0.200000 -0.068182
v -0.004226 0.200000 -0.095455
v -0.004226 0.200000 -0.122727
v -0.002113 0.196340 0.122727
v -0.002113 0.196340 0.095455
v -0.002113 0.196340 0.068182
v -0.002113 0.196340 0.040909
v -0.002113 0.196340 0.013636
v -0.002113 0.196340 -0.013636
v -0.002113 0.196340 -0.040909
v -0.002113 0.196340 -0.068182
v -0.002113 0.196340 -0.095455
v -0.002113 0.196340 -0.122727
v 0.002113 0.196340 0.122727
v 0.002113 0.196340 0.095455
v 0.002113 0.196340 0.068182
v 0.002113 0.196340 0.040909
v 0.002113 0.196340 0.013636
v 0.002113 0.196340 -0.013636
v 0.002113 0.196340 -0.040909
v 0.002113 0.196340 -0.068182
v 0.002113 0.196340 -0.095455
v 0.002113 0.196340 -0.122727
v 0.004226 0.200000 0.122727
v 0.004226 0.200000 0.095455
v 0.004226 0.200000 0.068182
v 0.004226 0.200000 0.040909
v 0.004226 0.200000 0.013636
v 0.004226 0.200000 -0.013636
v 0.004226 0.200000 -0.040909
v 0.004226 0.200000 -0.068182
v 0.004226 0.200000 -0.095455
v 0.004227 0.200000 -0.122727
v 0.005000 -0.048660 -0.122727
v 0.005000 -0.048660 -0.150000
v -0.005000 -0.048660 -0.150000
v -0.005000 -0.048660 0.150000
v 0.005000 -0.048660 0.150000
v -0.005000 -0.048660 -0.122727
v 0.005000 -0.048660 0.122727
v 0.005000 -0.048660 0.095455
v 0.005000 -0.048660 0.068182
v 0.005000 -0.048660 0.040909
v 0.005000 -0.048660 0.013636
v 0.005000 -0.048660 -0.013636
v 0.005000 -0.048660 -0.040909
v 0.005000 -0.048660 -0.068182
v 0.005000 -0.048660 -0.095455
v -0.005000 -0.048660 0.122727
v -0.005000 -0.048660 0.095455
v -0.005000 -0.048660 0.068182
v -0.005000 -0.048660 0.040909
v -0.005000 -0.048660 0.013636
v -0.005000 -0.048660 -0.013636
v -0.005000 -0.048660 -0.040909
v -0.005000 -0.048660 -0.068182
v -0.005000 -0.048660 -0.095455
v 0.005000 0.191340 -0.160000
v -0.005000 0.191340 -0.160000
v 0.002113 0.196340 -0.160000
v -0.002113 0.196340 -0.160000
v 0.005000 -0.048660 -0.160000
v -0.005000 -0.048660 -0.160000
v -0.005000 0.191340 0.160000
v 0.005000 0.191340 0.160000
v -0.002113 0.196340 0.160000
v 0.002113 0.196340 0.160000
v 0.005000 -0.048660 0.160000
v -0.005000 -0.048660 0.160000
vn 0.8660 0.5000 -0.0000
vn 0.8660 -0.5000 -0.0000
vn -1.0000 -0.0000 -0.0000
vn -0.8660 -0.5000 -0.0000
vn -0.8660 0.5000 -0.0000
vn -0.0000 1.0000 -0.0000
vn -0.0000 -1.0000 -0.0000
vn -0.0000 -0.0000 -1.0000
vn -0.0000 -0.0000 1.0000
vn 1.0000 -0.0000 -0.0000
vt 1.000000 0.954545
vt 1.000000 1.000000
vt 0.833333 1.000000
vt 0.833333 0.954545
vt 0.666667 1.000000
vt 0.666667 0.954545
vt 0.500000 0.590909
vt 0.500000 0.545455
vt 0.500000 0.954545
vt 0.500000 1.000000
vt 0.333333 1.000000
vt 0.333333 0.954546
vt 0.616699 0.300718
vt 0.616699 0.199282
vt 0.662154 0.199282
vt 0.662154 0.300718
vt 0.166667 1.000000
vt 0.166667 0.954545
vt -0.000000 1.000000
vt -0.000000 0.954545
vt 0.704545 0.351436
vt 0.750000 0.351436
vt 0.837846 0.300718
vt 1.000000 0.500000
vt 0.833333 0.500000
vt 0.250000 0.351436
vt 0.337846 0.300718
vt 0.457846 0.370000
vt 0.250000 0.490000
vt 0.837846 0.199282
vt 0.666667 0.500000
vt 0.337846 0.199282
vt 0.457846 0.130000
vt 0.750000 0.148564
vt 0.250000 0.148564
vt 0.250000 0.010000
vt 0.500000 0.500000
vt 0.333333 0.500000
vt 0.162154 0.199282
vt 0.042154 0.130000
vt 0.166667 0.500000
vt 0.162154 0.300718
vt 0.042154 0.370000
vt -0.000000 0.500000
vt 0.704545 0.148564
vt 0.792392 0.199282
vt 0.792392 0.300718
vt 0.166667 0.545455
vt -0.000000 0.545455
vt 0.166667 0.590909
vt 0.166667 0.636364
vt -0.000000 0.636364
vt -0.000000 0.590909
vt 0.166667 0.681818
vt 0.166667 0.727273
vt -0.000000 0.727273
vt -0.000000 0.681818
vt 0.166667 0.772727
vt 0.166667 0.818182
vt -0.000000 0.818182
vt -0.000000 0.772727
vt 0.166667 0.863636
vt 0.166667 0.909091
vt -0.000000 0.909091
vt -0.000000 0.863636
vt 0.333333 0.545455
vt 0.333333 0.590909
vt 0.333333 0.636364
vt 0.333333 0.681818
vt 0.333333 0.727273
vt 0.333333 0.772727
vt 0.333333 0.818182
vt 0.333333 0.863636
vt 0.333333 0.909091
vt 0.500000 0.636364
vt 0.500000 0.681818
vt 0.500000 0.727273
vt 0.500000 0.772727
vt 0.500000 0.818182
vt 0.500000 0.863636
vt 0.500000 0.909091
vt 0.666667 0.863636
vt 0.666667 0.909091
vt 0.666667 0.636364
vt 0.666667 0.681818
vt 0.833333 0.545455
vt 0.666667 0.545455
vt 0.833333 0.590909
vt 0.833333 0.636364
vt 0.666667 0.590909
vt 0.833333 0.681818
vt 0.833333 0.727273
vt 0.666667 0.727273
vt 0.833333 0.772727
vt 0.833333 0.818182
vt 0.666667 0.818182
vt 0.666667 0.772727
vt 0.833333 0.863636
vt 0.833333 0.909091
vt 0.434881 0.300718
vt 0.522727 0.351436
vt 1.000000 0.545455
vt 0.434881 0.199282
vt 1.000000 0.590909
vt 1.000000 0.636364
vt 0.522727 0.148564
vt 1.000000 0.681818
vt 1.000000 0.727273
vt 0.565119 0.199282
vt 0.610573 0.199282
vt 1.000000 0.772727
vt 1.000000 0.818182
vt 0.610573 0.300718
vt 1.000000 0.863636
vt 1.000000 0.909091
vt 0.295455 0.351436
vt 0.383301 0.300718
vt 0.477273 0.351436
vt 0.389427 0.300718
vt 0.428755 0.300718
vt 0.340909 0.351436
vt 0.386364 0.351436
vt 0.474210 0.300718
vt 0.565119 0.300718
vt 0.519664 0.300718
vt 0.431818 0.351436
vt 0.568182 0.351436
vt 0.656028 0.300718
vt 0.477273 0.148564
vt 0.701483 0.300718
vt 0.613636 0.351436
vt 0.659091 0.351436
vt 0.746937 0.300718
vt 0.389427 0.199282
vt 0.383301 0.199282
vt 0.428755 0.199282
vt 0.474210 0.199282
vt 0.298518 0.300718
vt 0.519664 0.199282
vt 0.656028 0.199282
vt 0.701482 0.199282
vt 0.746937 0.199282
vt 0.386364 0.148564
vt 0.431818 0.148564
vt 0.295455 0.148564
vt 0.298518 0.199282
vt 0.340909 0.148564
vt 0.343972 0.300718
vt 0.568182 0.148564
vt 0.343972 0.199282
vt 0.613636 0.148564
vt 0.659091 0.148564
vt 0.207608 0.199282
vt 0.253063 0.199282
vt 0.480336 0.199282
vt 0.253063 0.300718
vt 0.525790 0.199282
vt 0.571245 0.199282
vt 0.207608 0.300718
vt 0.480336 0.300718
vt 0.525790 0.300718
vt 0.571245 0.300718
s 0
f 34/1/1 16/2/1 15/3/1 35/4/1
f 35/4/2 15/3/2 18/5/2 45/6/2
f 63/7/3 64/8/3 150/8/3 168/7/3
f 55/9/4 20/10/4 22/11/4 65/12/4
f 104/13/2 114/14/2 9/15/2 11/16/2
f 65/12/5 22/11/5 24/17/5 75/18/5
f 75/18/6 24/17/6 16/19/6 34/20/6
f 85/21/7 104/13/7 11/16/7 1/22/7
f 3/23/8 1/22/8 13/24/8 14/25/8
f 2/26/9 4/27/9 15/28/9 16/29/9
f 5/30/8 3/23/8 14/25/8 17/31/8
f 4/27/9 6/32/9 18/33/9 15/28/9
f 7/34/6 5/30/6 171/30/6 172/34/6
f 8/35/5 20/36/5 175/36/5 177/35/5
f 9/15/8 7/34/8 19/37/8 21/38/8
f 8/35/9 10/39/9 22/40/9 20/36/9
f 11/16/8 9/15/8 21/38/8 23/41/8
f 10/39/9 12/42/9 24/43/9 22/40/9
f 1/22/8 11/16/8 23/41/8 13/44/8
f 12/42/9 2/26/9 16/29/9 24/43/9
f 114/14/1 124/45/1 7/34/1 9/15/1
f 124/45/6 134/46/6 5/30/6 7/34/6
f 134/46/5 144/47/5 3/23/5 5/30/5
f 144/47/4 85/21/4 1/22/4 3/23/4
f 23/41/6 84/48/6 25/49/6 13/44/6
f 83/50/6 82/51/6 27/52/6 26/53/6
f 81/54/6 80/55/6 29/56/6 28/57/6
f 79/58/6 78/59/6 31/60/6 30/61/6
f 77/62/6 76/63/6 33/64/6 32/65/6
f 21/38/5 74/66/5 84/48/5 23/41/5
f 73/67/5 72/68/5 82/51/5 83/50/5
f 71/69/5 70/70/5 80/55/5 81/54/5
f 69/71/5 68/72/5 78/59/5 79/58/5
f 67/73/5 66/74/5 76/63/5 77/62/5
f 19/37/4 64/8/4 74/66/4 21/38/4
f 63/7/4 62/75/4 72/68/4 73/67/4
f 61/76/4 60/77/4 70/70/4 71/69/4
f 59/78/4 58/79/4 68/72/4 69/71/4
f 57/80/4 56/81/4 66/74/4 67/73/4
f 62/75/3 63/7/3 168/7/3 167/75/3
f 47/82/10 46/83/10 152/83/10 153/82/10
f 17/31/10 146/31/10 173/31/10 169/31/10
f 52/84/10 51/85/10 157/85/10 158/84/10
f 60/77/3 61/76/3 166/76/3 165/77/3
f 14/25/2 44/86/2 54/87/2 17/31/2
f 43/88/2 42/89/2 52/84/2 53/90/2
f 41/91/2 40/92/2 50/93/2 51/85/2
f 39/94/2 38/95/2 48/96/2 49/97/2
f 37/98/2 36/99/2 46/83/2 47/82/2
f 100/100/9 89/101/9 29/56/9 80/55/9
f 13/24/1 25/102/1 44/86/1 14/25/1
f 110/103/9 100/100/9 80/55/9 70/70/9
f 26/104/1 27/105/1 42/89/1 43/88/1
f 120/106/9 110/103/9 70/70/9 60/77/9
f 28/107/1 29/108/1 40/92/1 41/91/1
f 129/109/1 49/97/1 50/93/1 130/110/1
f 30/111/1 31/112/1 38/95/1 39/94/1
f 140/113/9 130/110/9 50/93/9 40/92/9
f 32/114/1 33/115/1 36/99/1 37/98/1
f 89/101/9 140/113/9 40/92/9 29/108/9
f 4/27/4 2/26/4 94/116/4 135/117/4
f 90/118/8 99/119/8 79/58/8 30/61/8
f 136/120/4 93/121/4 92/122/4 137/123/4
f 139/124/8 90/118/8 30/111/8 39/94/8
f 138/125/4 91/126/4 90/118/4 139/124/4
f 129/109/8 139/124/8 39/94/8 49/97/8
f 140/113/4 89/101/4 88/127/4 141/128/4
f 119/129/6 129/109/6 130/110/6 120/106/6
f 142/130/4 87/131/4 86/132/4 143/133/4
f 109/134/8 119/129/8 59/78/8 69/71/8
f 6/32/5 4/27/5 135/117/5 125/135/5
f 99/119/8 109/134/8 69/71/8 79/58/8
f 126/136/5 136/120/5 137/123/5 127/137/5
f 92/122/8 97/138/8 77/62/8 32/65/8
f 128/139/5 138/125/5 139/124/5 129/109/5
f 137/123/8 92/122/8 32/114/8 37/98/8
f 130/110/5 140/113/5 141/128/5 131/140/5
f 127/137/8 137/123/8 37/98/8 47/82/8
f 132/141/5 142/130/5 143/133/5 133/142/5
f 117/143/6 127/137/6 128/139/6 118/144/6
f 8/35/6 6/32/6 125/135/6 115/145/6
f 107/146/8 117/143/8 57/80/8 67/73/8
f 116/147/6 126/136/6 127/137/6 117/143/6
f 97/138/8 107/146/8 67/73/8 77/62/8
f 118/144/6 128/139/6 129/109/6 119/129/6
f 98/148/9 91/126/9 31/60/9 78/59/9
f 120/106/6 130/110/6 131/140/6 121/149/6
f 108/150/9 98/148/9 78/59/9 68/72/9
f 122/151/6 132/141/6 133/142/6 123/152/6
f 118/144/9 108/150/9 68/72/9 58/79/9
f 10/39/1 8/35/1 115/145/1 105/153/1
f 57/80/5 117/143/5 118/144/5 58/79/5
f 106/154/1 116/147/1 117/143/1 107/146/1
f 138/125/9 128/139/9 48/96/9 38/95/9
f 108/150/1 118/144/1 119/129/1 109/134/1
f 91/126/9 138/125/9 38/95/9 31/112/9
f 110/103/1 120/106/1 121/149/1 111/155/1
f 96/156/9 93/121/9 33/64/9 76/63/9
f 112/157/1 122/151/1 123/152/1 113/158/1
f 106/154/9 96/156/9 76/63/9 66/74/9
f 2/26/7 12/42/7 95/159/7 94/116/7
f 116/147/9 106/154/9 66/74/9 56/81/9
f 93/121/7 96/156/7 97/138/7 92/122/7
f 115/145/6 125/135/6 126/136/6 116/147/6
f 91/126/7 98/148/7 99/119/7 90/118/7
f 136/120/9 126/136/9 46/83/9 36/99/9
f 89/101/7 100/100/7 101/160/7 88/127/7
f 93/121/9 136/120/9 36/99/9 33/115/9
f 87/131/7 102/161/7 103/162/7 86/132/7
f 94/116/8 95/159/8 75/18/8 34/20/8
f 12/42/2 10/39/2 105/153/2 95/159/2
f 135/117/8 94/116/8 34/1/8 35/4/8
f 96/156/2 106/154/2 107/146/2 97/138/2
f 125/135/8 135/117/8 35/4/8 45/6/8
f 98/148/2 108/150/2 109/134/2 99/119/2
f 55/9/5 115/145/5 116/147/5 56/81/5
f 100/100/2 110/103/2 111/155/2 101/160/2
f 105/153/8 115/145/8 55/9/8 65/12/8
f 102/161/2 112/157/2 113/158/2 103/162/2
f 95/159/8 105/153/8 65/12/8 75/18/8
f 101/160/8 111/155/8 71/69/8 81/54/8
f 111/155/8 121/149/8 61/76/8 71/69/8
f 121/149/6 131/140/6 132/141/6 122/151/6
f 131/140/8 141/128/8 41/91/8 51/85/8
f 141/128/8 88/127/8 28/107/8 41/91/8
f 88/127/8 101/160/8 81/54/8 28/57/8
f 87/131/9 142/130/9 42/89/9 27/105/9
f 142/130/9 132/141/9 52/84/9 42/89/9
f 61/76/5 121/149/5 122/151/5 62/75/5
f 122/151/9 112/157/9 72/68/9 62/75/9
f 112/157/9 102/161/9 82/51/9 72/68/9
f 102/161/9 87/131/9 27/52/9 82/51/9
f 103/162/8 113/158/8 73/67/8 83/50/8
f 113/158/8 123/152/8 63/7/8 73/67/8
f 123/152/6 133/142/6 134/46/6 124/45/6
f 133/142/8 143/133/8 43/88/8 53/90/8
f 143/133/8 86/132/8 26/104/8 43/88/8
f 86/132/8 103/162/8 83/50/8 26/53/8
f 85/21/9 144/47/9 44/86/9 25/102/9
f 144/47/9 134/46/9 54/87/9 44/86/9
f 63/7/5 123/152/5 124/45/5 64/8/5
f 124/45/9 114/14/9 74/66/9 64/8/9
f 114/14/9 104/13/9 84/48/9 74/66/9
f 104/13/9 85/21/9 25/49/9 84/48/9
f 125/135/1 45/6/1 46/83/1 126/136/1
f 55/9/3 56/81/3 161/81/3 160/9/3
f 127/137/1 47/82/1 48/96/1 128/139/1
f 48/96/10 47/82/10 153/82/10 154/96/10
f 45/6/10 18/5/10 149/5/10 151/6/10
f 59/78/5 119/129/5 120/106/5 60/77/5
f 131/140/1 51/85/1 52/84/1 132/141/1
f 17/31/10 54/87/10 145/87/10 146/31/10
f 133/142/1 53/90/1 54/87/1 134/46/1
f 58/79/3 59/78/3 164/78/3 163/79/3
f 151/6/7 149/5/7 148/10/7 160/9/7
f 146/31/7 145/87/7 150/8/7 147/37/7
f 159/90/7 158/84/7 167/75/7 168/7/7
f 157/85/7 156/93/7 165/77/7 166/76/7
f 155/97/7 154/96/7 163/79/7 164/78/7
f 153/82/7 152/83/7 161/81/7 162/80/7
f 151/6/7 160/9/7 161/81/7 152/83/7
f 153/82/7 162/80/7 163/79/7 154/96/7
f 155/97/7 164/78/7 165/77/7 156/93/7
f 157/85/7 166/76/7 167/75/7 158/84/7
f 159/90/7 168/7/7 150/8/7 145/87/7
f 20/10/3 148/10/3 180/10/3 175/10/3
f 49/97/10 48/96/10 154/96/10 155/97/10
f 64/8/3 19/37/3 147/37/3 150/8/3
f 51/85/10 50/93/10 156/93/10 157/85/10
f 50/93/10 49/97/10 155/97/10 156/93/10
f 46/83/10 45/6/10 151/6/10 152/83/10
f 53/90/10 52/84/10 158/84/10 159/90/10
f 59/78/3 60/77/3 165/77/3 164/78/3
f 57/80/3 58/79/3 163/79/3 162/80/3
f 54/87/10 53/90/10 159/90/10 145/87/10
f 20/10/3 55/9/3 160/9/3 148/10/3
f 61/76/3 62/75/3 167/75/3 166/76/3
f 56/81/3 57/80/3 162/80/3 161/81/3
f 172/34/8 171/30/8 169/31/8 170/37/8
f 170/37/8 169/31/8 173/31/8 174/37/8
f 5/30/1 17/31/1 169/31/1 171/30/1
f 147/37/3 19/37/3 170/37/3 174/37/3
f 146/31/7 147/37/7 174/37/7 173/31/7
f 19/37/5 7/34/5 172/34/5 170/37/5
f 178/32/9 177/35/9 175/36/9 176/33/9
f 176/33/9 175/36/9 180/36/9 179/33/9
f 148/10/7 149/5/7 179/5/7 180/10/7
f 18/33/1 6/32/1 178/32/1 176/33/1
f 149/5/10 18/5/10 176/5/10 179/5/10
f 6/32/6 8/35/6 177/35/6 178/32/6
