# Blender 5.0.1
# www.blender.org
mtllib jouet1.mtl
o Jouet1.001
v 0.000000 0.000000 -0.020000
v 0.000000 0.200000 -0.020000
v 0.014142 0.000000 -0.014142
v 0.014142 0.200000 -0.014142
v 0.020000 0.000000 0.000000
v 0.020000 0.200000 0.000000
v 0.014142 0.000000 0.014142
v 0.014142 0.200000 0.014142
v 0.000000 0.000000 0.020000
v 0.000000 0.200000 0.020000
v -0.014142 0.000000 0.014142
v -0.014142 0.200000 0.014142
v -0.020000 0.000000 0.000000
v -0.020000 0.200000 0.000000
v -0.014142 0.000000 -0.014142
v -0.014142 0.200000 -0.014142
v 0.000000 0.060000 -0.064000
v -0.045254 0.060000 -0.045255
v -0.064000 0.060000 0.000000
v -0.045254 0.060000 0.045255
v 0.000000 0.060000 0.064000
v 0.045255 0.060000 0.045255
v 0.064000 0.060000 0.000000
v 0.045255 0.060000 -0.045255
v 0.000000 0.030000 -0.112000
v 0.000000 0.000000 -0.112000
v -0.056569 0.000000 -0.056569
v -0.079196 0.030000 -0.079196
v -0.080000 0.000000 0.000000
v -0.079196 0.000000 -0.079196
v -0.056569 0.000000 0.056569
v -0.112000 0.030000 0.000000
v 0.000000 0.000000 0.080000
v -0.112000 0.000000 0.000000
v 0.056569 0.000000 0.056569
v -0.079196 0.000000 0.079196
v 0.080000 0.000000 0.000000
v -0.079196 0.030000 0.079196
v 0.056569 0.000000 -0.056569
v 0.000000 0.000000 -0.080000
v 0.000000 0.120000 -0.020000
v 0.014142 0.120000 -0.014142
v 0.020000 0.120000 0.000000
v 0.014142 0.120000 0.014142
v 0.000000 0.120000 0.020000
v -0.014142 0.120000 0.014142
v -0.020000 0.120000 0.000000
v -0.014142 0.120000 -0.014142
v 0.000000 0.000000 -0.050000
v 0.035355 0.000000 -0.035355
v 0.062226 0.060000 -0.062225
v 0.050000 0.000000 0.000000
v 0.088000 0.060000 0.000000
v 0.035355 0.000000 0.035355
v 0.062226 0.060000 0.062225
v 0.000000 0.000000 0.050000
v 0.000000 0.060000 0.088000
v -0.035355 0.000000 0.035355
v -0.062225 0.060000 0.062225
v -0.050000 0.000000 0.000000
v -0.088000 0.060000 0.000000
v -0.035355 0.000000 -0.035355
v -0.062225 0.030000 -0.062225
v -0.088000 0.030000 0.000000
v -0.062225 0.030000 0.062225
v 0.000000 0.030000 0.088000
v 0.062226 0.030000 0.062225
v 0.088000 0.030000 0.000000
v 0.062226 0.030000 -0.062225
v 0.000000 0.030000 -0.088000
v 0.000000 0.060000 -0.088000
v -0.062225 0.060000 -0.062225
v 0.028285 0.090000 -0.028284
v 0.040000 0.090000 0.000000
v 0.028285 0.090000 0.028284
v 0.000000 0.090000 0.040000
v -0.028284 0.090000 0.028284
v -0.040000 0.090000 0.000000
v -0.028284 0.090000 -0.028284
v 0.000000 0.090000 -0.040000
v 0.028285 0.120000 -0.028284
v 0.040000 0.120000 0.000000
v 0.028285 0.120000 0.028284
v 0.000000 0.120000 0.040000
v -0.028284 0.120000 0.028284
v -0.040000 0.120000 0.000000
v -0.028284 0.120000 -0.028284
v 0.000000 0.120000 -0.040000
v 0.045255 0.090000 -0.045255
v 0.064000 0.090000 0.000000
v 0.045255 0.090000 0.045255
v 0.000000 0.090000 0.064000
v -0.045254 0.090000 0.045255
v -0.064000 0.090000 0.000000
v -0.045254 0.090000 -0.045255
v 0.000000 0.090000 -0.064000
v 0.000000 0.000000 -0.110000
v -0.077782 0.000000 -0.077782
v -0.110000 0.000000 0.000000
v -0.077782 0.000000 0.077782
v 0.000000 0.000000 0.110000
v 0.077782 0.000000 0.077782
v 0.110000 0.000000 0.000000
v 0.077782 0.000000 -0.077782
v 0.000000 0.030000 0.112000
v 0.079196 0.030000 0.079196
v 0.112000 0.030000 0.000000
v 0.079196 0.030000 -0.079196
v 0.000000 0.000000 0.112000
v 0.079196 0.000000 0.079196
v 0.112000 0.000000 0.000000
v 0.079196 0.000000 -0.079196
v 0.000000 0.000000 0.000000
v -0.000000 0.200000 0.000000
vn 0.3827 -0.0000 -0.9239
vn 0.9239 -0.0000 -0.3827
vn 0.9239 -0.0000 0.3827
vn 0.3827 -0.0000 0.9239
vn -0.3827 -0.0000 0.9239
vn -0.9239 -0.0000 0.3827
vn -0.0000 1.0000 -0.0000
vn -0.9239 -0.0000 -0.3827
vn -0.3827 -0.0000 -0.9239
vn -0.0000 -1.0000 -0.0000
vt 1.000000 0.500000
vt 1.000000 1.000000
vt 0.875000 1.000000
vt 0.875000 0.500000
vt 0.750000 1.000000
vt 0.750000 0.500000
vt 0.625000 1.000000
vt 0.625000 0.500000
vt 0.500000 1.000000
vt 0.500000 0.500000
vt 0.375000 1.000000
vt 0.375000 0.500000
vt 0.250000 1.000000
vt 0.250000 0.500000
vt 0.419706 0.419706
vt 0.249999 0.249999
vt 0.419706 0.080294
vt 0.490000 0.250000
vt 0.125000 1.000000
vt 0.125000 0.500000
vt 0.000000 1.000000
vt 0.000000 0.500000
vt 0.750000 0.490000
vt 0.919706 0.419706
vt 0.750001 0.249999
vt 0.580294 0.419706
vt 0.990000 0.250000
vt 0.510000 0.250000
vt 0.580294 0.080294
vt 0.919706 0.080294
vt 0.750000 0.010000
vt 0.080294 0.080294
vt 0.080294 0.419706
vt 0.010000 0.250000
vt 0.250000 0.490000
vt 0.250000 0.010000
s 0
f 41/1/1 2/2/1 4/3/1 42/4/1
f 42/4/2 4/3/2 6/5/2 43/6/2
f 43/6/3 6/5/3 8/7/3 44/8/3
f 44/8/4 8/7/4 10/9/4 45/10/4
f 45/10/5 10/9/5 12/11/5 46/12/5
f 46/12/6 12/11/6 14/13/6 47/14/6
f 4/15/7 114/16/7 8/17/7 6/18/7
f 47/14/8 14/13/8 16/19/8 48/20/8
f 48/20/9 16/19/9 2/21/9 41/22/9
f 1/23/10 3/24/10 113/25/10 15/26/10
f 37/27/10 39/24/10 104/24/10 103/27/10
f 24/4/7 23/6/7 53/6/7 51/4/7
f 29/28/10 31/29/10 100/29/10 99/28/10
f 23/6/7 22/8/7 55/8/7 53/6/7
f 35/30/10 37/27/10 103/27/10 102/30/10
f 22/8/7 21/10/7 57/10/7 55/8/7
f 27/26/10 29/28/10 99/28/10 98/26/10
f 21/10/7 20/12/7 59/12/7 57/10/7
f 20/12/7 19/14/7 61/14/7 59/12/7
f 33/31/10 35/30/10 102/30/10 101/31/10
f 40/23/10 27/26/10 98/26/10 97/23/10
f 19/14/7 18/20/7 72/20/7 61/14/7
f 39/24/10 40/23/10 97/23/10 104/24/10
f 31/29/10 33/31/10 101/31/10 100/29/10
f 17/1/7 24/4/7 51/4/7 71/1/7
f 18/20/7 17/22/7 71/22/7 72/20/7
f 45/10/7 46/12/7 85/12/7 84/10/7
f 13/28/10 11/29/10 58/29/10 60/28/10
f 46/12/7 47/14/7 86/14/7 85/12/7
f 3/24/10 1/23/10 49/23/10 50/24/10
f 1/23/10 15/26/10 62/26/10 49/23/10
f 47/14/7 48/20/7 87/20/7 86/14/7
f 7/30/10 5/27/10 52/27/10 54/30/10
f 48/20/7 41/22/7 88/22/7 87/20/7
f 11/29/10 9/31/10 56/31/10 58/29/10
f 41/1/7 42/4/7 81/4/7 88/1/7
f 42/4/7 43/6/7 82/6/7 81/4/7
f 15/26/10 13/28/10 60/28/10 62/26/10
f 5/27/10 3/24/10 50/24/10 52/27/10
f 43/6/7 44/8/7 83/8/7 82/6/7
f 44/8/7 45/10/7 84/10/7 83/8/7
f 9/31/10 7/30/10 54/30/10 56/31/10
f 63/20/9 72/20/9 71/22/9 70/22/9
f 64/14/8 61/14/8 72/20/8 63/20/8
f 65/12/6 59/12/6 61/14/6 64/14/6
f 66/10/5 57/10/5 59/12/5 65/12/5
f 67/8/4 55/8/4 57/10/4 66/10/4
f 68/6/3 53/6/3 55/8/3 67/8/3
f 69/4/2 51/4/2 53/6/2 68/6/2
f 70/1/1 71/1/1 51/4/1 69/4/1
f 79/20/7 80/22/7 96/22/7 95/20/7
f 80/1/7 73/4/7 89/4/7 96/1/7
f 60/28/10 58/29/10 31/29/10 29/28/10
f 52/27/10 50/24/10 39/24/10 37/27/10
f 73/4/7 74/6/7 90/6/7 89/4/7
f 74/6/7 75/8/7 91/8/7 90/6/7
f 58/29/10 56/31/10 33/31/10 31/29/10
f 50/24/10 49/23/10 40/23/10 39/24/10
f 75/8/7 76/10/7 92/10/7 91/8/7
f 49/23/10 62/26/10 27/26/10 40/23/10
f 76/10/7 77/12/7 93/12/7 92/10/7
f 56/31/10 54/30/10 35/30/10 33/31/10
f 77/12/7 78/14/7 94/14/7 93/12/7
f 62/26/10 60/28/10 29/28/10 27/26/10
f 78/14/7 79/20/7 95/20/7 94/14/7
f 54/30/10 52/27/10 37/27/10 35/30/10
f 79/20/9 87/20/9 88/22/9 80/22/9
f 78/14/8 86/14/8 87/20/8 79/20/8
f 77/12/6 85/12/6 86/14/6 78/14/6
f 76/10/5 84/10/5 85/12/5 77/12/5
f 75/8/4 83/8/4 84/10/4 76/10/4
f 74/6/3 82/6/3 83/8/3 75/8/3
f 73/4/2 81/4/2 82/6/2 74/6/2
f 80/1/1 88/1/1 81/4/1 73/4/1
f 18/20/9 95/20/9 96/22/9 17/22/9
f 19/14/8 94/14/8 95/20/8 18/20/8
f 20/12/6 93/12/6 94/14/6 19/14/6
f 21/10/5 92/10/5 93/12/5 20/12/5
f 22/8/4 91/8/4 92/10/4 21/10/4
f 23/6/3 90/6/3 91/8/3 22/8/3
f 24/4/2 89/4/2 90/6/2 23/6/2
f 17/1/1 96/1/1 89/4/1 24/4/1
f 98/26/10 99/28/10 34/28/10 30/26/10
f 70/1/7 69/4/7 108/4/7 25/1/7
f 100/29/10 101/31/10 109/31/10 36/29/10
f 69/4/7 68/6/7 107/6/7 108/4/7
f 103/27/10 104/24/10 112/24/10 111/27/10
f 68/6/7 67/8/7 106/8/7 107/6/7
f 67/8/7 66/10/7 105/10/7 106/8/7
f 97/23/10 98/26/10 30/26/10 26/23/10
f 26/1/1 25/1/1 108/4/1 112/4/1
f 112/4/2 108/4/2 107/6/2 111/6/2
f 111/6/3 107/6/3 106/8/3 110/8/3
f 110/8/4 106/8/4 105/10/4 109/10/4
f 109/10/5 105/10/5 38/12/5 36/12/5
f 36/12/6 38/12/6 32/14/6 34/14/6
f 34/14/8 32/14/8 28/20/8 30/20/8
f 30/20/9 28/20/9 25/22/9 26/22/9
f 104/24/10 97/23/10 26/23/10 112/24/10
f 63/20/7 70/22/7 25/22/7 28/20/7
f 64/14/7 63/20/7 28/20/7 32/14/7
f 101/31/10 102/30/10 110/30/10 109/31/10
f 65/12/7 64/14/7 32/14/7 38/12/7
f 66/10/7 65/12/7 38/12/7 105/10/7
f 99/28/10 100/29/10 36/29/10 34/28/10
f 102/30/10 103/27/10 111/27/10 110/30/10
f 15/26/10 113/25/10 11/29/10 13/28/10
f 113/25/10 3/24/10 5/27/10 7/30/10
f 11/29/10 113/25/10 7/30/10 9/31/10
f 12/32/7 114/16/7 16/33/7 14/34/7
f 16/33/7 114/16/7 4/15/7 2/35/7
f 8/17/7 114/16/7 12/32/7 10/36/7
