# Blender 4.0.2
# www.blender.org
mtllib armoire.mtl
o Cube
v -0.200000 -0.400000 0.400000
v -0.200000 0.400000 0.400000
v -0.200000 -0.400000 -0.400000
v -0.200000 0.400000 -0.400000
v 0.200000 -0.400000 0.400000
v 0.200000 0.400000 0.400000
v 0.200000 -0.400000 -0.400000
v 0.200000 0.400000 -0.400000
v -0.200000 0.360000 0.400000
v -0.200000 0.360000 -0.400000
v 0.200000 0.360000 -0.400000
v 0.200000 0.360000 0.400000
v 0.230000 0.400000 -0.400000
v 0.230000 0.400000 0.400000
v 0.215000 0.360000 -0.400000
v 0.215000 0.360000 0.400000
v -0.200000 -0.400000 0.000000
v -0.200000 0.400000 0.000000
v 0.200000 -0.400000 0.000000
v 0.200000 0.400000 0.000000
v 0.200000 0.360000 0.000000
v -0.200000 0.360000 0.000000
v 0.230000 0.400000 0.000000
v 0.215000 0.360000 0.000000
v -0.200000 -0.400000 0.370000
v 0.200000 0.400000 0.370000
v 0.200000 0.360000 0.370000
v 0.230000 0.400000 0.370000
v 0.215000 0.360000 0.370000
v -0.200000 0.400000 0.370000
v 0.200000 -0.400000 0.370000
v -0.200000 0.360000 0.370000
v -0.200000 0.400000 -0.370000
v 0.200000 -0.400000 -0.370000
v -0.200000 0.360000 -0.370000
v -0.200000 -0.400000 -0.370000
v 0.200000 0.400000 -0.370000
v 0.200000 0.360000 -0.370000
v 0.230000 0.400000 -0.370000
v 0.215000 0.360000 -0.370000
v -0.200000 -0.320000 -0.400000
v 0.200000 -0.320000 -0.400000
v 0.200000 -0.320000 0.400000
v -0.200000 -0.320000 0.400000
v -0.200000 -0.320000 0.000000
v 0.200000 -0.320000 0.000000
v -0.200000 -0.320000 0.370000
v 0.200000 -0.320000 0.370000
v 0.200000 -0.320000 -0.370000
v -0.200000 -0.320000 -0.370000
v -0.200000 0.340000 0.400000
v -0.200000 0.340000 -0.400000
v 0.200000 0.340000 -0.400000
v 0.200000 0.340000 0.400000
v -0.200000 0.340000 0.000000
v 0.200000 0.340000 0.000000
v -0.200000 0.340000 0.370000
v 0.200000 0.340000 0.370000
v 0.200000 0.340000 -0.370000
v -0.200000 0.340000 -0.370000
v 0.200000 0.360000 -0.003700
v 0.200000 0.360000 0.003700
v 0.215000 0.360000 -0.003700
v 0.215000 0.360000 0.003700
v 0.200000 0.400000 -0.003700
v 0.200000 0.400000 0.003700
v 0.230000 0.400000 -0.003700
v 0.230000 0.400000 0.003700
v -0.200000 -0.320000 -0.003700
v -0.200000 -0.320000 0.003700
v -0.200000 -0.400000 -0.003700
v -0.200000 -0.400000 0.003700
v 0.200000 -0.320000 0.003700
v 0.200000 -0.320000 -0.003700
v 0.200000 -0.400000 0.003700
v 0.200000 -0.400000 -0.003700
v -0.200000 0.400000 0.003700
v -0.200000 0.400000 -0.003700
v -0.200000 0.360000 0.003700
v -0.200000 0.360000 -0.003700
v -0.200000 0.340000 -0.003700
v -0.200000 0.340000 0.003700
v 0.200000 0.340000 0.003700
v 0.200000 0.340000 -0.003700
v 0.220000 0.340000 0.370000
v 0.220000 -0.320000 0.370000
v 0.220000 0.340000 -0.370000
v 0.220000 -0.320000 -0.370000
v 0.220000 -0.320000 0.003700
v 0.220000 -0.320000 -0.003700
v 0.220000 0.340000 0.003700
v 0.220000 0.340000 -0.003700
v 0.200000 0.360000 -0.013700
v 0.215000 0.360000 -0.013700
v 0.200000 0.400000 -0.013700
v 0.230000 0.400000 -0.013700
v -0.200000 -0.320000 -0.013700
v -0.200000 -0.400000 -0.013700
v 0.200000 -0.320000 -0.013700
v 0.200000 -0.400000 -0.013700
v -0.200000 0.400000 -0.013700
v -0.200000 0.360000 -0.013700
v -0.200000 0.340000 -0.013700
v 0.200000 0.340000 -0.013700
v 0.220000 -0.320000 -0.013700
v 0.220000 0.340000 -0.013700
v 0.200000 0.360000 0.013700
v 0.215000 0.360000 0.013700
v 0.200000 0.400000 0.013700
v 0.230000 0.400000 0.013700
v -0.200000 -0.320000 0.013700
v -0.200000 -0.400000 0.013700
v 0.200000 -0.320000 0.013700
v 0.200000 -0.400000 0.013700
v -0.200000 0.400000 0.013700
v -0.200000 0.360000 0.013700
v -0.200000 0.340000 0.013700
v 0.200000 0.340000 0.013700
v 0.220000 -0.320000 0.013700
v 0.220000 0.340000 0.013700
v -0.200000 0.010000 -0.400000
v 0.200000 0.010000 -0.400000
v 0.200000 0.010000 0.400000
v -0.200000 0.010000 0.000000
v 0.200000 0.010000 0.000000
v -0.200000 0.010000 0.370000
v 0.200000 0.010000 0.370000
v 0.200000 0.010000 -0.370000
v -0.200000 0.010000 -0.370000
v -0.200000 0.010000 0.400000
v -0.200000 0.010000 0.003700
v 0.200000 0.010000 -0.003700
v -0.200000 0.010000 -0.003700
v 0.200000 0.010000 0.003700
v 0.220000 0.010000 0.370000
v 0.220000 0.010000 -0.370000
v 0.220000 0.010000 -0.003700
v 0.220000 0.010000 0.003700
v 0.220000 0.010000 -0.013700
v -0.200000 0.010000 -0.013700
v 0.220000 0.010000 0.013700
v -0.200000 0.010000 0.013700
v -0.200000 0.110000 0.400000
v -0.200000 0.110000 -0.003700
v 0.200000 0.110000 0.003700
v 0.220000 0.110000 0.003700
v -0.200000 0.110000 -0.400000
v 0.200000 0.110000 -0.400000
v 0.200000 0.110000 0.400000
v -0.200000 0.110000 0.000000
v 0.200000 0.110000 0.000000
v -0.200000 0.110000 0.370000
v 0.200000 0.110000 0.370000
v 0.200000 0.110000 -0.370000
v -0.200000 0.110000 -0.370000
v -0.200000 0.110000 0.003700
v 0.200000 0.110000 -0.003700
v 0.220000 0.110000 0.370000
v 0.220000 0.110000 -0.370000
v 0.220000 0.110000 -0.003700
v 0.220000 0.110000 -0.013700
v -0.200000 0.110000 -0.013700
v 0.220000 0.110000 0.013700
v -0.200000 0.110000 0.013700
v 0.260000 0.110000 -0.003700
v 0.260000 0.010000 -0.003700
v 0.260000 0.110000 -0.013700
v 0.260000 0.010000 -0.013700
v 0.260000 0.110000 0.013700
v 0.260000 0.010000 0.013700
v 0.260000 0.010000 0.003700
v 0.260000 0.110000 0.003700
v 0.225000 0.100000 0.013700
v 0.225000 0.020000 0.013700
v 0.255000 0.020000 0.013700
v 0.255000 0.100000 0.013700
v 0.225000 0.020000 -0.013700
v 0.225000 0.100000 -0.013700
v 0.255000 0.100000 -0.013700
v 0.255000 0.020000 -0.013700
v 0.225000 0.100000 -0.003700
v 0.225000 0.020000 -0.003700
v 0.255000 0.020000 -0.003700
v 0.255000 0.100000 -0.003700
v 0.225000 0.020000 0.003700
v 0.225000 0.100000 0.003700
v 0.255000 0.100000 0.003700
v 0.255000 0.020000 0.003700
vn -1.0000 -0.0000 -0.0000
vn -0.0000 -0.0000 -1.0000
vn -0.0000 -0.0000 1.0000
vn -0.0000 -1.0000 -0.0000
vn -0.0000 1.0000 -0.0000
vn 1.0000 -0.0000 -0.0000
vn 0.9363 -0.3511 -0.0000
vt 0.625000 0.250000
vt 0.625000 0.500000
vt 0.625000 0.750000
vt 0.625000 1.000000
vt 0.125000 0.750000
vt 0.375000 0.750000
vt 0.875000 0.750000
vt 0.625000 0.626250
vt 0.625000 0.625000
vt 0.625000 0.626250
vt 0.625000 0.623750
vt 0.625000 0.123750
vt 0.625000 0.125000
vt 0.875000 0.623750
vt 0.875000 0.625000
vt 0.125000 0.623750
vt 0.375000 0.623750
vt 0.375000 0.625000
vt 0.125000 0.625000
vt 0.625000 0.000000
vt 0.875000 0.626250
vt 0.375000 0.626250
vt 0.125000 0.626250
vt 0.125000 0.500000
vt 0.375000 0.500000
vt 0.875000 0.500000
vt 0.625000 0.126250
vt 0.375000 0.125000
vt 0.375000 0.126250
vt 0.375000 0.000000
vt 0.375000 0.123750
vt 0.375000 0.250000
vt 0.375000 1.000000
vt 0.500000 0.125000
vt 0.500000 0.126250
vt 0.500000 0.500000
vt 0.500000 0.625000
vt 0.500000 0.626250
vt 0.500000 0.000000
vt 0.500000 0.623750
vt 0.500000 0.123750
vt 0.500000 0.250000
vt 0.500000 0.750000
vt 0.500000 0.750000
vt 0.500000 1.000000
vt 0.375000 0.626250
vt 0.500000 0.126250
vt 0.500000 0.626250
vt 0.375000 0.626250
vt 0.500000 0.623750
vt 0.500000 0.626250
s 0
f 35/1/1 33/1/1 4/1/1 10/1/1
f 10/1/2 4/1/2 8/2/2 11/2/2
f 6/3/3 12/3/3 16/3/3 14/3/3
f 12/3/3 6/3/3 2/4/3 9/4/3
f 25/5/4 31/6/4 5/6/4 1/5/4
f 26/3/5 30/7/5 2/7/5 6/3/5
f 54/3/3 12/3/3 9/4/3 51/4/3
f 58/3/6 27/3/6 12/3/6 54/3/6
f 52/1/2 10/1/2 11/2/2 53/2/2
f 60/1/1 35/1/1 10/1/1 52/1/1
f 29/3/7 28/3/7 14/3/7 16/3/7
f 11/2/2 8/2/2 13/2/2 15/2/2
f 26/3/5 6/3/5 14/3/5 28/3/5
f 38/2/4 11/2/4 15/2/4 40/2/4
f 62/8/4 21/9/4 24/9/4 64/10/4
f 65/11/5 20/9/5 23/9/5 67/11/5
f 63/11/7 67/11/7 23/9/7 24/9/7
f 82/12/1 79/12/1 22/13/1 55/13/1
f 84/11/6 61/11/6 21/9/6 56/9/6
f 65/11/5 78/14/5 18/15/5 20/9/5
f 71/16/4 76/17/4 19/18/4 17/19/4
f 79/12/1 77/12/1 18/13/1 22/13/1
f 9/20/1 2/20/1 30/20/1 32/20/1
f 51/20/1 9/20/1 32/20/1 57/20/1
f 12/3/4 27/3/4 29/3/4 16/3/4
f 20/9/5 66/8/5 68/8/5 23/9/5
f 24/9/7 23/9/7 68/8/7 64/10/7
f 56/9/6 21/9/6 62/8/6 83/8/6
f 20/9/5 18/15/5 77/21/5 66/8/5
f 17/19/4 19/18/4 75/22/4 72/23/4
f 3/24/4 7/25/4 34/25/4 36/24/4
f 8/2/5 4/26/5 33/26/5 37/2/5
f 53/2/6 11/2/6 38/2/6 59/2/6
f 15/2/7 13/2/7 39/2/7 40/2/7
f 8/2/5 37/2/5 39/2/5 13/2/5
f 21/9/4 61/11/4 63/11/4 24/9/4
f 55/13/1 22/13/1 80/27/1 81/27/1
f 22/13/1 18/13/1 78/27/1 80/27/1
f 17/28/1 45/28/1 69/29/1 71/29/1
f 7/25/6 42/25/6 49/25/6 34/25/6
f 19/18/6 46/18/6 73/22/6 75/22/6
f 1/30/1 44/30/1 47/30/1 25/30/1
f 76/17/6 74/17/6 46/18/6 19/18/6
f 72/31/1 70/31/1 45/28/1 17/28/1
f 36/32/1 50/32/1 41/32/1 3/32/1
f 3/32/2 41/32/2 42/25/2 7/25/2
f 31/6/6 48/6/6 43/6/6 5/6/6
f 5/6/3 43/6/3 44/33/3 1/33/3
f 150/34/1 55/13/1 81/27/1 144/35/1
f 148/36/6 53/2/6 59/2/6 154/36/6
f 151/37/6 56/9/6 83/8/6 145/38/6
f 143/39/1 51/20/1 57/20/1 152/39/1
f 157/40/6 84/11/6 56/9/6 151/37/6
f 156/41/1 82/12/1 55/13/1 150/34/1
f 155/42/1 60/1/1 52/1/1 147/42/1
f 147/42/2 52/1/2 53/2/2 148/36/2
f 153/43/6 58/3/6 54/3/6 149/44/6
f 149/44/3 54/3/3 51/4/3 143/45/3
f 93/11/4 38/2/4 40/2/4 94/11/4
f 118/8/6 107/8/6 27/3/6 58/3/6
f 94/11/7 96/11/7 67/11/7 63/11/7
f 107/8/4 62/8/4 64/10/4 108/10/4
f 109/8/5 26/3/5 28/3/5 110/8/5
f 95/11/5 101/14/5 78/14/5 65/11/5
f 95/11/5 65/11/5 67/11/5 96/11/5
f 108/10/7 110/8/7 28/3/7 29/3/7
f 98/29/1 97/29/1 50/32/1 36/32/1
f 164/41/1 117/12/1 82/12/1 156/41/1
f 98/16/4 100/17/4 76/17/4 71/16/4
f 112/31/1 111/31/1 70/31/1 72/31/1
f 114/22/6 113/46/6 48/6/6 31/6/6
f 154/36/2 59/2/2 87/2/2 159/36/2
f 112/23/4 114/22/4 31/6/4 25/5/4
f 100/17/6 99/17/6 74/17/6 76/17/6
f 102/27/1 101/27/1 33/1/1 35/1/1
f 109/8/5 115/21/5 30/7/5 26/3/5
f 116/12/1 115/12/1 77/12/1 79/12/1
f 103/27/1 102/27/1 35/1/1 60/1/1
f 162/47/1 103/27/1 60/1/1 155/42/1
f 117/12/1 116/12/1 79/12/1 82/12/1
f 104/11/5 84/11/5 92/11/5 106/11/5
f 104/11/6 93/11/6 61/11/6 84/11/6
f 161/40/6 106/11/6 92/11/6 160/40/6
f 163/48/6 120/8/6 85/3/6 158/44/6
f 113/46/4 73/22/4 89/22/4 119/49/4
f 132/40/3 74/17/3 90/17/3 137/40/3
f 145/38/2 83/8/2 91/8/2 146/48/2
f 99/17/4 49/25/4 88/25/4 105/17/4
f 118/8/5 58/3/5 85/3/5 120/8/5
f 127/44/3 48/6/3 86/6/3 135/44/3
f 74/17/4 99/17/4 105/17/4 90/17/4
f 159/36/6 87/2/6 106/11/6 161/40/6
f 59/2/6 38/2/6 93/11/6 104/11/6
f 59/2/5 104/11/5 106/11/5 87/2/5
f 144/35/1 81/27/1 103/27/1 162/47/1
f 81/27/1 80/27/1 102/27/1 103/27/1
f 80/27/1 78/27/1 101/27/1 102/27/1
f 34/25/6 49/25/6 99/17/6 100/17/6
f 36/24/4 34/25/4 100/17/4 98/16/4
f 71/29/1 69/29/1 97/29/1 98/29/1
f 37/2/5 95/11/5 96/11/5 39/2/5
f 37/2/5 33/26/5 101/14/5 95/11/5
f 40/2/7 39/2/7 96/11/7 94/11/7
f 61/11/4 93/11/4 94/11/4 63/11/4
f 83/8/5 118/8/5 120/8/5 91/8/5
f 48/6/4 113/46/4 119/49/4 86/6/4
f 146/48/6 91/8/6 120/8/6 163/48/6
f 57/20/1 32/20/1 116/12/1 117/12/1
f 32/20/1 30/20/1 115/12/1 116/12/1
f 66/8/5 77/21/5 115/21/5 109/8/5
f 72/23/4 75/22/4 114/22/4 112/23/4
f 75/22/6 73/22/6 113/46/6 114/22/6
f 25/30/1 47/30/1 111/31/1 112/31/1
f 152/39/1 57/20/1 117/12/1 164/41/1
f 64/10/7 68/8/7 110/8/7 108/10/7
f 66/8/5 109/8/5 110/8/5 68/8/5
f 27/3/4 107/8/4 108/10/4 29/3/4
f 83/8/6 62/8/6 107/8/6 118/8/6
f 47/30/1 126/39/1 142/41/1 111/31/1
f 89/22/6 138/48/6 141/48/6 119/49/6
f 69/29/1 133/35/1 140/47/1 97/29/1
f 88/25/6 136/36/6 139/40/6 105/17/6
f 153/43/3 127/44/3 135/44/3 158/44/3
f 73/22/2 134/38/2 138/48/2 89/22/2
f 157/40/3 132/40/3 137/40/3 160/40/3
f 119/49/6 141/48/6 135/44/6 86/6/6
f 105/17/6 139/40/6 137/40/6 90/17/6
f 97/29/1 140/47/1 129/42/1 50/32/1
f 49/25/2 128/36/2 136/36/2 88/25/2
f 111/31/1 142/41/1 131/41/1 70/31/1
f 43/6/3 123/44/3 130/45/3 44/33/3
f 48/6/6 127/44/6 123/44/6 43/6/6
f 41/32/2 121/42/2 122/36/2 42/25/2
f 50/32/1 129/42/1 121/42/1 41/32/1
f 70/31/1 131/41/1 124/34/1 45/28/1
f 74/17/6 132/40/6 125/37/6 46/18/6
f 44/30/1 130/39/1 126/39/1 47/30/1
f 46/18/6 125/37/6 134/38/6 73/22/6
f 42/25/6 122/36/6 128/36/6 49/25/6
f 45/28/1 124/34/1 133/35/1 69/29/1
f 84/11/3 157/40/3 160/40/3 92/11/3
f 58/3/3 153/43/3 158/44/3 85/3/3
f 126/39/1 152/39/1 164/41/1 142/41/1
f 137/40/4 139/40/4 168/40/4 166/40/4
f 133/35/1 144/35/1 162/47/1 140/47/1
f 136/36/6 159/36/6 161/40/6 139/40/6
f 134/38/2 145/38/2 146/48/2 138/48/2
f 141/48/6 163/48/6 158/44/6 135/44/6
f 161/40/5 160/40/5 165/40/5 167/40/5
f 140/47/1 162/47/1 155/42/1 129/42/1
f 128/36/2 154/36/2 159/36/2 136/36/2
f 142/41/1 164/41/1 156/41/1 131/41/1
f 123/44/3 149/44/3 143/45/3 130/45/3
f 127/44/6 153/43/6 149/44/6 123/44/6
f 121/42/2 147/42/2 148/36/2 122/36/2
f 129/42/1 155/42/1 147/42/1 121/42/1
f 131/41/1 156/41/1 150/34/1 124/34/1
f 132/40/6 157/40/6 151/37/6 125/37/6
f 130/39/1 143/39/1 152/39/1 126/39/1
f 125/37/6 151/37/6 145/38/6 134/38/6
f 122/36/6 148/36/6 154/36/6 128/36/6
f 124/34/1 150/34/1 144/35/1 133/35/1
f 171/48/6 172/48/6 169/48/6 170/48/6
f 168/40/6 167/40/6 165/40/6 166/40/6
f 187/48/1 188/48/1 175/48/1 176/48/1
f 183/40/1 184/40/1 179/40/1 180/40/1
f 182/50/5 183/40/5 180/40/5 177/40/5
f 146/48/5 163/48/5 169/48/5 172/48/5
f 186/51/4 187/48/4 176/48/4 173/48/4
f 141/48/4 138/48/4 171/48/4 170/48/4
f 163/48/3 141/48/3 174/51/3 173/48/3
f 141/48/3 170/48/3 175/48/3 174/51/3
f 170/48/3 169/48/3 176/48/3 175/48/3
f 169/48/3 163/48/3 173/48/3 176/48/3
f 139/40/2 161/40/2 178/50/2 177/40/2
f 161/40/2 167/40/2 179/40/2 178/50/2
f 167/40/2 168/40/2 180/40/2 179/40/2
f 168/40/2 139/40/2 177/40/2 180/40/2
f 160/40/3 137/40/3 182/50/3 181/40/3
f 137/40/3 166/40/3 183/40/3 182/50/3
f 166/40/3 165/40/3 184/40/3 183/40/3
f 165/40/3 160/40/3 181/40/3 184/40/3
f 138/48/2 146/48/2 186/51/2 185/48/2
f 146/48/2 172/48/2 187/48/2 186/51/2
f 172/48/2 171/48/2 188/48/2 187/48/2
f 171/48/2 138/48/2 185/48/2 188/48/2
f 188/48/5 185/48/5 174/51/5 175/48/5
f 185/48/6 186/51/6 173/48/6 174/51/6
f 184/40/4 181/40/4 178/50/4 179/40/4
f 181/40/6 182/50/6 177/40/6 178/50/6
